<mxfile host="app.diagrams.net" modified="2020-10-03T20:56:38.985Z" agent="5.0 (Windows NT 10.0; Win64; x64) AppleWebKit/537.36 (KHTML, like Gecko) Chrome/85.0.4183.121 Safari/537.36 Edg/85.0.564.63" etag="OLdZ3bjo_NGKZf2reTdS" version="13.7.7" type="github" pages="3">
  <diagram id="tPPdBkuNiyHkq_ejwzCF" name="Page-2">
    <mxGraphModel dx="1422" dy="746" grid="1" gridSize="10" guides="1" tooltips="1" connect="1" arrows="1" fold="1" page="1" pageScale="1" pageWidth="1100" pageHeight="850" math="0" shadow="0">
      <root>
        <mxCell id="td8ue9MhQQZhqmFF_dWc-0" />
        <mxCell id="td8ue9MhQQZhqmFF_dWc-1" parent="td8ue9MhQQZhqmFF_dWc-0" />
        <mxCell id="td8ue9MhQQZhqmFF_dWc-2" value="" style="strokeWidth=1;shadow=0;dashed=0;align=center;html=1;shape=mxgraph.mockup.containers.browserWindow;rSize=0;strokeColor=#666666;strokeColor2=#008cff;strokeColor3=#c4c4c4;mainText=,;recursiveResize=0;" vertex="1" parent="td8ue9MhQQZhqmFF_dWc-1">
          <mxGeometry x="90" y="90" width="990" height="690" as="geometry" />
        </mxCell>
        <mxCell id="td8ue9MhQQZhqmFF_dWc-3" value="H.O.P.E" style="strokeWidth=1;shadow=0;dashed=0;align=center;html=1;shape=mxgraph.mockup.containers.anchor;fontSize=17;fontColor=#666666;align=left;" vertex="1" parent="td8ue9MhQQZhqmFF_dWc-2">
          <mxGeometry x="60" y="12" width="110" height="26" as="geometry" />
        </mxCell>
        <mxCell id="td8ue9MhQQZhqmFF_dWc-4" value="https://www.hopeinabox.co.za" style="strokeWidth=1;shadow=0;dashed=0;align=center;html=1;shape=mxgraph.mockup.containers.anchor;rSize=0;fontSize=17;fontColor=#666666;align=left;" vertex="1" parent="td8ue9MhQQZhqmFF_dWc-2">
          <mxGeometry x="130" y="60" width="250" height="26" as="geometry" />
        </mxCell>
        <mxCell id="jBbNkPDjekJqR4u3x3ay-0" value="" style="strokeWidth=1;shadow=0;dashed=0;align=center;html=1;shape=mxgraph.mockup.forms.rrect;rSize=0;strokeColor=#999999;fillColor=#ffffff;" vertex="1" parent="td8ue9MhQQZhqmFF_dWc-2">
          <mxGeometry x="360" y="200" width="200" height="300" as="geometry" />
        </mxCell>
        <mxCell id="jBbNkPDjekJqR4u3x3ay-1" value="Sign In" style="strokeWidth=1;shadow=0;dashed=0;align=center;html=1;shape=mxgraph.mockup.forms.anchor;fontSize=12;fontColor=#666666;align=left;resizeWidth=1;spacingLeft=0;" vertex="1" parent="jBbNkPDjekJqR4u3x3ay-0">
          <mxGeometry width="100" height="20" relative="1" as="geometry">
            <mxPoint x="10" y="10" as="offset" />
          </mxGeometry>
        </mxCell>
        <mxCell id="jBbNkPDjekJqR4u3x3ay-2" value="" style="shape=line;strokeColor=#ddeeff;strokeWidth=2;html=1;resizeWidth=1;" vertex="1" parent="jBbNkPDjekJqR4u3x3ay-0">
          <mxGeometry width="180" height="10" relative="1" as="geometry">
            <mxPoint x="10" y="30" as="offset" />
          </mxGeometry>
        </mxCell>
        <mxCell id="jBbNkPDjekJqR4u3x3ay-3" value="User Name:" style="strokeWidth=1;shadow=0;dashed=0;align=center;html=1;shape=mxgraph.mockup.forms.anchor;fontSize=12;fontColor=#666666;align=left;resizeWidth=1;spacingLeft=0;" vertex="1" parent="jBbNkPDjekJqR4u3x3ay-0">
          <mxGeometry width="100" height="20" relative="1" as="geometry">
            <mxPoint x="10" y="40" as="offset" />
          </mxGeometry>
        </mxCell>
        <mxCell id="jBbNkPDjekJqR4u3x3ay-4" value="johndoe" style="strokeWidth=1;shadow=0;dashed=0;align=center;html=1;shape=mxgraph.mockup.forms.rrect;rSize=0;strokeColor=#999999;fontColor=#666666;align=left;spacingLeft=5;resizeWidth=1;" vertex="1" parent="jBbNkPDjekJqR4u3x3ay-0">
          <mxGeometry width="150" height="25" relative="1" as="geometry">
            <mxPoint x="10" y="60" as="offset" />
          </mxGeometry>
        </mxCell>
        <mxCell id="jBbNkPDjekJqR4u3x3ay-5" value="Password:" style="strokeWidth=1;shadow=0;dashed=0;align=center;html=1;shape=mxgraph.mockup.forms.anchor;fontSize=12;fontColor=#666666;align=left;resizeWidth=1;spacingLeft=0;" vertex="1" parent="jBbNkPDjekJqR4u3x3ay-0">
          <mxGeometry width="100" height="20" relative="1" as="geometry">
            <mxPoint x="10" y="95" as="offset" />
          </mxGeometry>
        </mxCell>
        <mxCell id="jBbNkPDjekJqR4u3x3ay-6" value="********" style="strokeWidth=1;shadow=0;dashed=0;align=center;html=1;shape=mxgraph.mockup.forms.rrect;rSize=0;strokeColor=#999999;fontColor=#666666;align=left;spacingLeft=5;resizeWidth=1;" vertex="1" parent="jBbNkPDjekJqR4u3x3ay-0">
          <mxGeometry width="150" height="25" relative="1" as="geometry">
            <mxPoint x="10" y="115" as="offset" />
          </mxGeometry>
        </mxCell>
        <mxCell id="jBbNkPDjekJqR4u3x3ay-7" value="SIGN IN" style="strokeWidth=1;shadow=0;dashed=0;align=center;html=1;shape=mxgraph.mockup.forms.rrect;rSize=5;strokeColor=none;fontColor=#ffffff;fillColor=#66bbff;fontSize=16;fontStyle=1;" vertex="1" parent="jBbNkPDjekJqR4u3x3ay-0">
          <mxGeometry y="1" width="80" height="30" relative="1" as="geometry">
            <mxPoint x="20" y="-150" as="offset" />
          </mxGeometry>
        </mxCell>
        <mxCell id="jBbNkPDjekJqR4u3x3ay-8" value="Forgot Password?" style="strokeWidth=1;shadow=0;dashed=0;align=center;html=1;shape=mxgraph.mockup.forms.anchor;fontSize=12;fontColor=#9999ff;align=left;spacingLeft=0;fontStyle=4;resizeWidth=1;" vertex="1" parent="jBbNkPDjekJqR4u3x3ay-0">
          <mxGeometry y="1" width="150" height="20" relative="1" as="geometry">
            <mxPoint x="10" y="-110" as="offset" />
          </mxGeometry>
        </mxCell>
        <mxCell id="jBbNkPDjekJqR4u3x3ay-9" value="" style="shape=line;strokeColor=#ddeeff;strokeWidth=2;html=1;resizeWidth=1;" vertex="1" parent="jBbNkPDjekJqR4u3x3ay-0">
          <mxGeometry y="1" width="180" height="10" relative="1" as="geometry">
            <mxPoint x="10" y="-90" as="offset" />
          </mxGeometry>
        </mxCell>
        <mxCell id="jBbNkPDjekJqR4u3x3ay-10" value="New User" style="strokeWidth=1;shadow=0;dashed=0;align=center;html=1;shape=mxgraph.mockup.forms.anchor;fontSize=12;fontColor=#666666;align=left;spacingLeft=0;resizeWidth=1;" vertex="1" parent="jBbNkPDjekJqR4u3x3ay-0">
          <mxGeometry y="1" width="150" height="20" relative="1" as="geometry">
            <mxPoint x="10" y="-70" as="offset" />
          </mxGeometry>
        </mxCell>
        <mxCell id="jBbNkPDjekJqR4u3x3ay-11" value="SIGN UP" style="strokeWidth=1;shadow=0;dashed=0;align=center;html=1;shape=mxgraph.mockup.forms.rrect;rSize=5;strokeColor=none;fontColor=#ffffff;fillColor=#66bbff;fontSize=16;fontStyle=1;" vertex="1" parent="jBbNkPDjekJqR4u3x3ay-0">
          <mxGeometry y="1" width="80" height="30" relative="1" as="geometry">
            <mxPoint x="20" y="-50" as="offset" />
          </mxGeometry>
        </mxCell>
      </root>
    </mxGraphModel>
  </diagram>
  <diagram name="Page-1" id="03018318-947c-dd8e-b7a3-06fadd420f32">
    <mxGraphModel dx="1422" dy="746" grid="1" gridSize="10" guides="1" tooltips="1" connect="1" arrows="1" fold="1" page="1" pageScale="1" pageWidth="1100" pageHeight="850" background="#ffffff" math="0" shadow="0">
      <root>
        <mxCell id="0" />
        <mxCell id="1" parent="0" />
        <mxCell id="677b7b8949515195-1" value="" style="whiteSpace=wrap;html=1;rounded=0;shadow=0;labelBackgroundColor=none;strokeColor=#000000;strokeWidth=1;fillColor=none;fontFamily=Verdana;fontSize=12;fontColor=#000000;align=center;comic=1;" parent="1" vertex="1">
          <mxGeometry x="20" y="20" width="1060" height="810" as="geometry" />
        </mxCell>
        <mxCell id="677b7b8949515195-2" value="LOGO" style="whiteSpace=wrap;html=1;rounded=0;shadow=0;labelBackgroundColor=none;strokeWidth=1;fontFamily=Verdana;fontSize=28;align=center;comic=1;" parent="1" vertex="1">
          <mxGeometry x="40" y="60" width="190" height="50" as="geometry" />
        </mxCell>
        <mxCell id="677b7b8949515195-3" value="Search" style="strokeWidth=1;shadow=0;dashed=0;align=center;html=1;shape=mxgraph.mockup.forms.searchBox;strokeColor=#999999;mainText=;strokeColor2=#008cff;fontColor=#666666;fontSize=17;align=left;spacingLeft=3;rounded=0;labelBackgroundColor=none;comic=1;" parent="1" vertex="1">
          <mxGeometry x="840" y="95" width="220" height="30" as="geometry" />
        </mxCell>
        <mxCell id="677b7b8949515195-4" value="Topic 1" style="text;html=1;points=[];align=left;verticalAlign=top;spacingTop=-4;fontSize=14;fontFamily=Verdana" parent="1" vertex="1">
          <mxGeometry x="780" y="40" width="60" height="20" as="geometry" />
        </mxCell>
        <mxCell id="677b7b8949515195-5" value="Topic 2" style="text;html=1;points=[];align=left;verticalAlign=top;spacingTop=-4;fontSize=14;fontFamily=Verdana" parent="1" vertex="1">
          <mxGeometry x="860" y="40" width="60" height="20" as="geometry" />
        </mxCell>
        <mxCell id="677b7b8949515195-6" value="Topic 3" style="text;html=1;points=[];align=left;verticalAlign=top;spacingTop=-4;fontSize=14;fontFamily=Verdana" parent="1" vertex="1">
          <mxGeometry x="930" y="40" width="60" height="20" as="geometry" />
        </mxCell>
        <mxCell id="677b7b8949515195-7" value="Topic 4" style="text;html=1;points=[];align=left;verticalAlign=top;spacingTop=-4;fontSize=14;fontFamily=Verdana" parent="1" vertex="1">
          <mxGeometry x="1000" y="40" width="60" height="20" as="geometry" />
        </mxCell>
        <mxCell id="677b7b8949515195-8" value="" style="whiteSpace=wrap;html=1;rounded=0;shadow=0;labelBackgroundColor=none;strokeWidth=1;fillColor=none;fontFamily=Verdana;fontSize=12;align=center;comic=1;" parent="1" vertex="1">
          <mxGeometry x="30" y="230" width="200" height="590" as="geometry" />
        </mxCell>
        <mxCell id="677b7b8949515195-9" value="" style="line;strokeWidth=1;html=1;rounded=0;shadow=0;labelBackgroundColor=none;fillColor=none;fontFamily=Verdana;fontSize=14;fontColor=#000000;align=center;comic=1;" parent="1" vertex="1">
          <mxGeometry x="20" y="140" width="1060" height="10" as="geometry" />
        </mxCell>
        <mxCell id="677b7b8949515195-10" value="" style="whiteSpace=wrap;html=1;rounded=0;shadow=0;labelBackgroundColor=none;strokeWidth=1;fillColor=none;fontFamily=Verdana;fontSize=12;align=center;comic=1;" parent="1" vertex="1">
          <mxGeometry x="30" y="160" width="1040" height="50" as="geometry" />
        </mxCell>
        <mxCell id="677b7b8949515195-11" value="Section 1" style="text;html=1;points=[];align=left;verticalAlign=top;spacingTop=-4;fontSize=14;fontFamily=Verdana" parent="1" vertex="1">
          <mxGeometry x="330" y="175" width="60" height="20" as="geometry" />
        </mxCell>
        <mxCell id="677b7b8949515195-12" value="Section 2" style="text;html=1;points=[];align=left;verticalAlign=top;spacingTop=-4;fontSize=14;fontFamily=Verdana" parent="1" vertex="1">
          <mxGeometry x="477" y="175" width="60" height="20" as="geometry" />
        </mxCell>
        <mxCell id="677b7b8949515195-13" value="Section 3" style="text;html=1;points=[];align=left;verticalAlign=top;spacingTop=-4;fontSize=14;fontFamily=Verdana" parent="1" vertex="1">
          <mxGeometry x="623" y="175" width="60" height="20" as="geometry" />
        </mxCell>
        <mxCell id="677b7b8949515195-14" value="Section 4" style="text;html=1;points=[];align=left;verticalAlign=top;spacingTop=-4;fontSize=14;fontFamily=Verdana" parent="1" vertex="1">
          <mxGeometry x="770" y="175" width="60" height="20" as="geometry" />
        </mxCell>
        <mxCell id="677b7b8949515195-15" value="&lt;div style=&quot;text-align: justify&quot;&gt;&lt;span&gt;Lorem ipsum dolor sit amet, consectetur adipisicing elit, sed do eiusmod tempor incididunt ut labore et dolore magna aliqua. Ut enim ad minim veniam, quis nostrud exercitation ullamco laboris nisi ut aliquip ex ea commodo consequat. Duis aute irure dolor in reprehenderit in voluptate velit esse cillum dolore eu fugiat nulla pariatur. Excepteur sint occaecat cupidatat non proident, sunt in culpa qui officia deserunt mollit anim id est laborum.&lt;/span&gt;&lt;/div&gt;&lt;div style=&quot;text-align: justify&quot;&gt;&lt;span&gt;Sed ut perspiciatis unde omnis iste natus error sit voluptatem accusantium doloremque laudantium, totam rem aperiam, eaque ipsa quae ab illo inventore veritatis et quasi architecto beatae vitae dicta sunt explicabo. Nemo enim ipsam voluptatem quia voluptas sit aspernatur aut odit aut fugit, sed quia consequuntur magni dolores eos qui ratione voluptatem sequi nesciunt.&amp;nbsp;&lt;/span&gt;&lt;/div&gt;" style="whiteSpace=wrap;html=1;rounded=0;shadow=0;labelBackgroundColor=none;strokeWidth=1;fillColor=none;fontFamily=Verdana;fontSize=12;align=center;verticalAlign=top;spacing=10;comic=1;" parent="1" vertex="1">
          <mxGeometry x="250" y="640" width="580" height="180" as="geometry" />
        </mxCell>
        <mxCell id="677b7b8949515195-16" value="" style="verticalLabelPosition=bottom;shadow=0;dashed=0;align=center;html=1;verticalAlign=top;strokeWidth=1;shape=mxgraph.mockup.graphics.simpleIcon;strokeColor=#999999;rounded=0;labelBackgroundColor=none;fontFamily=Verdana;fontSize=14;fontColor=#000000;comic=1;" parent="1" vertex="1">
          <mxGeometry x="250" y="230" width="580" height="400" as="geometry" />
        </mxCell>
        <mxCell id="677b7b8949515195-25" value="" style="whiteSpace=wrap;html=1;rounded=0;shadow=0;labelBackgroundColor=none;strokeWidth=1;fillColor=none;fontFamily=Verdana;fontSize=12;align=center;comic=1;" parent="1" vertex="1">
          <mxGeometry x="840" y="230" width="230" height="400" as="geometry" />
        </mxCell>
        <mxCell id="677b7b8949515195-26" value="" style="whiteSpace=wrap;html=1;rounded=0;shadow=0;labelBackgroundColor=none;strokeWidth=1;fillColor=none;fontFamily=Verdana;fontSize=12;align=center;comic=1;" parent="1" vertex="1">
          <mxGeometry x="840" y="640" width="230" height="180" as="geometry" />
        </mxCell>
        <mxCell id="677b7b8949515195-27" value="Section 1" style="text;html=1;points=[];align=left;verticalAlign=top;spacingTop=-4;fontSize=14;fontFamily=Verdana" parent="1" vertex="1">
          <mxGeometry x="40" y="250" width="170" height="20" as="geometry" />
        </mxCell>
        <mxCell id="677b7b8949515195-28" value="Section 2" style="text;html=1;points=[];align=left;verticalAlign=top;spacingTop=-4;fontSize=14;fontFamily=Verdana" parent="1" vertex="1">
          <mxGeometry x="40" y="286" width="170" height="20" as="geometry" />
        </mxCell>
        <mxCell id="677b7b8949515195-29" value="Section 3" style="text;html=1;points=[];align=left;verticalAlign=top;spacingTop=-4;fontSize=14;fontFamily=Verdana" parent="1" vertex="1">
          <mxGeometry x="40" y="321" width="170" height="20" as="geometry" />
        </mxCell>
        <mxCell id="677b7b8949515195-30" value="Section 4" style="text;html=1;points=[];align=left;verticalAlign=top;spacingTop=-4;fontSize=14;fontFamily=Verdana" parent="1" vertex="1">
          <mxGeometry x="40" y="357" width="170" height="20" as="geometry" />
        </mxCell>
        <mxCell id="677b7b8949515195-31" value="Section 7" style="text;html=1;points=[];align=left;verticalAlign=top;spacingTop=-4;fontSize=14;fontFamily=Verdana" parent="1" vertex="1">
          <mxGeometry x="40" y="464" width="170" height="20" as="geometry" />
        </mxCell>
        <mxCell id="677b7b8949515195-32" value="Section 8" style="text;html=1;points=[];align=left;verticalAlign=top;spacingTop=-4;fontSize=14;fontFamily=Verdana" parent="1" vertex="1">
          <mxGeometry x="40" y="500" width="170" height="20" as="geometry" />
        </mxCell>
        <mxCell id="677b7b8949515195-33" value="Section 9" style="text;html=1;points=[];align=left;verticalAlign=top;spacingTop=-4;fontSize=14;fontFamily=Verdana" parent="1" vertex="1">
          <mxGeometry x="40" y="536" width="170" height="20" as="geometry" />
        </mxCell>
        <mxCell id="677b7b8949515195-34" value="Section 10" style="text;html=1;points=[];align=left;verticalAlign=top;spacingTop=-4;fontSize=14;fontFamily=Verdana" parent="1" vertex="1">
          <mxGeometry x="40" y="571" width="170" height="20" as="geometry" />
        </mxCell>
        <mxCell id="677b7b8949515195-35" value="Section 11" style="text;html=1;points=[];align=left;verticalAlign=top;spacingTop=-4;fontSize=14;fontFamily=Verdana" parent="1" vertex="1">
          <mxGeometry x="40" y="607" width="170" height="20" as="geometry" />
        </mxCell>
        <mxCell id="677b7b8949515195-36" value="Section 12" style="text;html=1;points=[];align=left;verticalAlign=top;spacingTop=-4;fontSize=14;fontFamily=Verdana" parent="1" vertex="1">
          <mxGeometry x="40" y="643" width="170" height="20" as="geometry" />
        </mxCell>
        <mxCell id="677b7b8949515195-37" value="Section 13" style="text;html=1;points=[];align=left;verticalAlign=top;spacingTop=-4;fontSize=14;fontFamily=Verdana" parent="1" vertex="1">
          <mxGeometry x="40" y="679" width="170" height="20" as="geometry" />
        </mxCell>
        <mxCell id="677b7b8949515195-38" value="Section 14" style="text;html=1;points=[];align=left;verticalAlign=top;spacingTop=-4;fontSize=14;fontFamily=Verdana" parent="1" vertex="1">
          <mxGeometry x="40" y="714" width="170" height="20" as="geometry" />
        </mxCell>
        <mxCell id="677b7b8949515195-39" value="Section 5" style="text;html=1;points=[];align=left;verticalAlign=top;spacingTop=-4;fontSize=14;fontFamily=Verdana" parent="1" vertex="1">
          <mxGeometry x="40" y="393" width="170" height="20" as="geometry" />
        </mxCell>
        <mxCell id="677b7b8949515195-40" value="Section 6" style="text;html=1;points=[];align=left;verticalAlign=top;spacingTop=-4;fontSize=14;fontFamily=Verdana" parent="1" vertex="1">
          <mxGeometry x="40" y="429" width="170" height="20" as="geometry" />
        </mxCell>
        <mxCell id="677b7b8949515195-41" value="Section 15" style="text;html=1;points=[];align=left;verticalAlign=top;spacingTop=-4;fontSize=14;fontFamily=Verdana" parent="1" vertex="1">
          <mxGeometry x="40" y="750" width="170" height="20" as="geometry" />
        </mxCell>
        <mxCell id="677b7b8949515195-42" value="External Links" style="text;html=1;points=[];align=left;verticalAlign=top;spacingTop=-4;fontSize=14;fontFamily=Verdana" parent="1" vertex="1">
          <mxGeometry x="860" y="653" width="170" height="20" as="geometry" />
        </mxCell>
        <mxCell id="677b7b8949515195-44" value="Feature 1" style="text;html=1;points=[];align=left;verticalAlign=top;spacingTop=-4;fontSize=14;fontFamily=Verdana" parent="1" vertex="1">
          <mxGeometry x="860" y="250" width="170" height="20" as="geometry" />
        </mxCell>
        <mxCell id="677b7b8949515195-45" value="Feature 2" style="text;html=1;points=[];align=left;verticalAlign=top;spacingTop=-4;fontSize=14;fontFamily=Verdana" parent="1" vertex="1">
          <mxGeometry x="860" y="285" width="170" height="20" as="geometry" />
        </mxCell>
        <mxCell id="677b7b8949515195-46" value="Feature 3" style="text;html=1;points=[];align=left;verticalAlign=top;spacingTop=-4;fontSize=14;fontFamily=Verdana" parent="1" vertex="1">
          <mxGeometry x="860" y="320" width="170" height="20" as="geometry" />
        </mxCell>
        <mxCell id="677b7b8949515195-47" value="Feature 4" style="text;html=1;points=[];align=left;verticalAlign=top;spacingTop=-4;fontSize=14;fontFamily=Verdana" parent="1" vertex="1">
          <mxGeometry x="860" y="355" width="170" height="20" as="geometry" />
        </mxCell>
        <mxCell id="677b7b8949515195-48" value="Feature 5" style="text;html=1;points=[];align=left;verticalAlign=top;spacingTop=-4;fontSize=14;fontFamily=Verdana" parent="1" vertex="1">
          <mxGeometry x="860" y="390" width="170" height="20" as="geometry" />
        </mxCell>
        <mxCell id="677b7b8949515195-49" value="Feature 6" style="text;html=1;points=[];align=left;verticalAlign=top;spacingTop=-4;fontSize=14;fontFamily=Verdana" parent="1" vertex="1">
          <mxGeometry x="860" y="425" width="170" height="20" as="geometry" />
        </mxCell>
      </root>
    </mxGraphModel>
  </diagram>
  <diagram id="svvuoQ86pwEgdwXKo7vn" name="Page-3">
    <mxGraphModel dx="1422" dy="794" grid="1" gridSize="10" guides="1" tooltips="1" connect="1" arrows="1" fold="1" page="1" pageScale="1" pageWidth="1100" pageHeight="850" math="0" shadow="0">
      <root>
        <mxCell id="si_sN-9SS_ps1o2H-Q9L-0" />
        <mxCell id="si_sN-9SS_ps1o2H-Q9L-1" parent="si_sN-9SS_ps1o2H-Q9L-0" />
        <mxCell id="UKY1m4jih5ewO7I-ZEdz-0" value="" style="strokeWidth=1;shadow=0;dashed=0;align=center;html=1;shape=mxgraph.mockup.containers.browserWindow;rSize=0;strokeColor=#666666;strokeColor2=#008cff;strokeColor3=#c4c4c4;mainText=,;recursiveResize=0;" vertex="1" parent="si_sN-9SS_ps1o2H-Q9L-1">
          <mxGeometry x="40" y="50" width="1000" height="800" as="geometry" />
        </mxCell>
        <mxCell id="UKY1m4jih5ewO7I-ZEdz-1" value="H.O.P.E" style="strokeWidth=1;shadow=0;dashed=0;align=center;html=1;shape=mxgraph.mockup.containers.anchor;fontSize=17;fontColor=#666666;align=left;" vertex="1" parent="UKY1m4jih5ewO7I-ZEdz-0">
          <mxGeometry x="60" y="12" width="110" height="26" as="geometry" />
        </mxCell>
        <mxCell id="UKY1m4jih5ewO7I-ZEdz-2" value="https://www.hopeinabox.co.za" style="strokeWidth=1;shadow=0;dashed=0;align=center;html=1;shape=mxgraph.mockup.containers.anchor;rSize=0;fontSize=17;fontColor=#666666;align=left;" vertex="1" parent="UKY1m4jih5ewO7I-ZEdz-0">
          <mxGeometry x="130" y="60" width="250" height="26" as="geometry" />
        </mxCell>
        <mxCell id="HwLwO4qjRw8fgx_lzEza-0" value="" style="whiteSpace=wrap;html=1;rounded=0;shadow=0;labelBackgroundColor=none;strokeColor=#000000;strokeWidth=1;fillColor=none;fontFamily=Verdana;fontSize=12;fontColor=#000000;align=center;comic=1;" vertex="1" parent="si_sN-9SS_ps1o2H-Q9L-1">
          <mxGeometry x="40" y="160" width="990" height="630" as="geometry" />
        </mxCell>
        <mxCell id="HwLwO4qjRw8fgx_lzEza-1" value="H.O.P.E" style="whiteSpace=wrap;html=1;rounded=0;shadow=0;labelBackgroundColor=none;strokeWidth=1;fontFamily=Verdana;fontSize=20;align=center;comic=1;image=data:image/png,iVBORw0KGgoAAAANSUhEUgAAAKIAAACmCAYAAABZY1QNAAAAAXNSR0IArs4c6QAAAARnQU1BAACxjwv8YQUAAAAJcEhZcwAADsMAAA7DAcdvqGQAAIohSURBVHhe7b0HgGRVmT1+KueqznGmpyfnPAxDGjIoIApiwIAJ8+Lqqrt/XVfXtK67BkwIKrhiAhSULDmnyXmmZzrn3F3VleP/nFs9AoKSeoL+5oM31fXqhfvuPfd857vpWQo0HELrH+hCTfX0yW8vtP6BTvNZU93w579lxe9dk9/0ffoLvv81e6l7/i37W+l5rfbc68kSiejkX4DH43/e95mNi15w/4PfDx6nYw5aW/ue530/1NbevhuNjYsnv73Q9LvMzeeS1VTPMJ9/zQ45EI/Z4be/BdhDYe0dRdD9pXncflS/BAAP2jEg/j9i/QMdsPBTwHgucASWRPI5zPxXvutTpvMHeK2D9nKB9lJ2DIjH7Kgw6+TnMTtmR9SOAfGYHRV2DIjH7KiwY0A8ZkeFHQPiMTsq7BgQj9lRYceAeMyOCjsGxGN2VNgxIB6zo8KO9ay8Smt98iqk8jHk/H4sWfHRyb3H7NXaMUZ8FTbQ8zScmXZ4E20IpQYx0PX05C/H7NXaMSC+TJuIRrHzwF7zd3TgUThTTQThAfijnUgObDT7j9mrt2NAfJm2a/8BxBJJ87c1NwZ3oR++Qh+8mUE4c8+OVjlmr86OAfFlmtuVh8OeL37JJWBHGI7CGKzZUQrtRHH/MXvVdgyIL9NWLl6N1YtWF78Ij9Y88tY0MkggV0gX9x+zV23HgPgS1rrlx2jb8FW0bL16cg9gsXqRtXqQtNqRsBWQISiP2WuzY0B8CXMkhmBPtsCSOIDmzT8y+2z2ILK2IOJ2N+JOBzK2Y9n4Wu1YO+JLWPdDn4Itsx1pWwBW/3zYPYuoC0cYOj+MTKobWXsAOf+JyHlXIp+NwWLJI2e1YdGS901e4Zi9HDsGxJewvqc/AW/iUSiTYtlyFKxz4AuUIZMfRHqiF66CFbbgMuQslbDnupFI9iOct8BSOgvuypPR2HBu8ULH7G/aMZ/yEpai283DxSg5C09hAO7kdhSi+5DPWOFwVsPtKYczH4Ur1QpfsgPe7CC8iMFuySKa6Jm8yjF7KTsGxL9hW/f9DCkGJXFMQyIXgiWfgTvbCne8Bd5MFi5XCbJuD9L5fuRSTcikx5HLe5CzT6eGrMeS+e+fvNIxeyk7BsS/YfZcXtqFjEjdZ7GgYHfCZnMA3Ge1ZLjlkE7HCcABFHK9yOXCPMtKnRhARc3pxYv8g1jfwIvPXZ4qOwbEv2GOrAOuXBJOyyicjgxsziBytmlIFkqRzKeQy4ZhzYRhyU1QQ8Zhs6bpknOwE6hOR3Ee8D+KHepA4hgQ/4YtWP4+girNgGSUKjEGm8VKIFYjZa9EAhZkMlHYs1Eyow0Wu4+a0QKXNQZHbhSjbXdPXuUfw+qq//ryIlNhx4D4ElZgVGzP5VBIxpBPE352G5xePywON/VgDvlsiq7Ywe8+2Pmbw5KAPR8mGI/1P78SOwbEl7Csswy5Qh2QdsNBN+wutMNtHURJoBQ2RxDxLDWkjYyo6DqTQjabpl7MIJ0qDpA4Zi/PjgHxJSxLRswiyE8XAZaHEwxIEgOIjw/TJVsRrKgkIAt020nkrXkkMgXkrH44vGWTVzhmL8eOAfFvWG/307AxWMlb6Zo9PqRsPjIeAZnJ011H4XExns5nkMuMA5lRBi901dYQcu4qTFv9scmrHLOXY8eA+DfMkeeWS8Bqm4DVYwNcIUbO9YCF0XOOmjEbQToepnZMIpvJUjPaYPcEALsb4dFnV8z6R7Km3Tdi966rsXvHtZN7psaOAfFvWD4RhYOO2YYoQRdHAXYU7GXUhASihWyYi3MP2TLnZsBSBocriHwhhyzZsq/r3smr/ONY0+afUQd3IpfuZ8UbxM4tUwfGKQdie9vT2PTMddiy4Tq07r9ncu/fp1XPPwtZqxfWnAfWeBqWxAjSiV5GyBn4QtWmXdGA01KNgmMmrFYf3XSEx/fBZR2ZvMo/hu3bQBDmBpFJ9yGTGaAkGYWFFXSqbMqBONy7C0hNwJYeQS68A+07fjz5y9+nZe3UfPkgGDrDaYnCmh/k3xMsFCdSaReszhD8/hrYCn4kU2nmaBJ2ewKWXBjj4/8Y7rl5y3VwW4eBdC+9RB+s6TEjWWz5FIb6pqbHZcqBWFU6HcF8FP74AXjHnoBj5Am0bv755K8vtJ0bN0/+dZQaGVHasOChk7Zm6KbzrGQZVja6bEbHQACu5Cj8yTY47BPIOKwYz7mQsvhRUlJcTbV5f3HS1dFqe1rvwZ4DL/Re+568Ci33fwu+WBucyf1wJzvgT42hNJtHSd4Bb96Nytqpaeh+TUAcfZEaX1azAD53AT5nBG50sdD2wZJum/z1xUwL6h5e630F0z8t2SgKrFgWBiBwlCINLxIsiJxFzJchQ/I3uixrboBMmeR+N6yuUlhsockrAHPmLZz86+ixkeeU3aJZ52LR3OcPV9u19btw5bvgyXfDm2uHL9sOPyLwWu1w2UoYwJWhYJu6bszXBMSyyRr/XPOXzUDGbUeGDJJ02ZC2U+Snd6Dt6U9j/5NfQfPGH6B527MMufS4VZN/HT7TCMzI2Eu7zb27fgIbC8Ge6YI95SDgGpF21SHq8SBqiyJb6GBla4PNQhBa0rxuEPZCCTdmbD43eZUXt71THHW+Uit/kbI7aLt2/gTOFAmk0IScs40+oIOE0ktXzGckCBOOaQjba9G4eupGF025a5blczYWjNOwiIOuSlMvvblmuLLNsGb28ff92L/rqsmjD7/VN6xDPNaHzpa/zYxZZk+WUXCeeqhAZkQuBac9AI+nhtExmTGZpmhPMWDhcVYPWZBBjY7PjPHkFwr5rs7Wyb+YPblx7Np+3eS3w2+jf6Uitmy4Ct5YEzwpgi/XD9ijlMf0CpkUn83JgCyIrKUUC1dfPnnG1NghAaKd7sthITOgDPasDz6ygy87Cne2m9pqLx9qDyz5HnRSmxwpS6fDGBraMfntxW3pksuRsZYix2jYwgJBgVIjFYWv4IOHkTLylUjkS5CxVRKIIWRyOWQzYTJHBHa67hfYpAoZ6niarjzCPDhy3YAjI/sm/3rWOh+9DsF0J3xJAjEzCDulhiCSByuZnWzv8LMiklwOgZo6JECEo4KZXkdtNZfMMBuOTAiOdIF6Iw87Iy57hjSf6kWGUfXe7Vdjz+4bJ088fNZAXZQn523Z+NPJPX/FrFUo2Keh4CTb2WL0wL2wRPvhzmfhdlURqA1IWiuRggvZfIbuLAsnQxptf2nTp89CKjaBXCIMa1YMw6DnSNlfgKn58R+wbHbDm20jGw7w+ZJw5J2ws7LlUY6s0wc40wzQ+Oz0aK2Pfwl7n/o+9myZmrKbUiAODO7Gjs0/QJq0XqAbczBydJMtCjknAWmjngrCxb/dmQxcqRE4GIX5qLNc2Rbs2/6zyascPrNYpOOGcWD3X4/qHXS5sJciQ6lucbpgJxhT8XZ66UE4HXbYXWVkRSvSlgzsTjs8Nh8c2SCQ4TO/iEWHe5AN99LN541WPVIWTTANk9ax8fvwUDo50nvhpKdy5ibozaxkdj1LKfJZL5IkkXR+DPl0K6yxHfTY2+GYaII1egC7N/8Ym7f9DBt2XofdLa/Oy00ZEHds+TIGOr/FWnUnLMnbYInfCUfqYbgKu5DMdFJrFeiKKgi8BvizZXDFowjS1aWHn2CubIMrc/gbgK2aBmoZIYuNT+55vnU33YN8rIcueIRuiS7a3oAJMl3WlWK9GqE27EMmKTHfx0g5xgqYRibO6uaaDbejavIqz7fUWB81ZJaFy4K2vjhYp8q2bf05Nm54oQ7dvvdG5BA3f+975jtAYhPsyb3wUgta08wLsmG+wAqY96CQTDDRCTJ4mt6AHiFJ6ZGOELAxRtAZeO05VtYcbDZWamsBieyL5+VL2ZQAsYsFZqU4t+XHCbZ+CvtOZnYLtWAz3TOjTm8MWXvGNALb82V0ywHTU+HOjCJg6SEjtsGa6kTrxsPb+G23MxK2MBAhA0y8SN9wiiC0W/lchVEyWJoaUeMQKTu85WRAkh6DElthkM9IUBZS8NB9e10BA7JM9sWj5kJmmPkQZ2DjgsXqmNw7tTbOQGRoaDcrWY7BxQsFXWVwBjVsGtu3Xc1n74cz246AdZxSwwabwwOH20+m9/PTCq87hpAzxd8dDDr9cNkq4PE2wh2YCZu3kpno50M54Xc3Yu3iD2DN/LdN3uWV2ZQAcfr8c+m2FlDQrgVsJ1FTHYe8cxEyjjqk7F7Ygg7kXYww7dQYGjyaZzBD12XP2/mAVmYECzrVDEum40UBcahsRuO5BJINuWQUY20vdCmzV70fFhedVH7CaENbepQFWEoAz0Emz2dL0zVbswi4fHBaAmQGG6PoMCJkydSLsOxA66MEbB9S+UFe142ahrMnf5la6+19Gn29T1AG5lFV/fw2zOgIWXxccijOqLgHtkwfpR/1aoZSIcvKlfIjngoiTlZMFnpZyVrhoHxx58jg2WpecTFVx/FIeVjWtW9Aw9pPY96qD2HOX7RDvlKbMte8eMUHsGjV5+CwraB2WklQzqWQr0KCFE9FSBBa6NrCjC4p1B05uFxeWKkhbbkggWnnwzJKI3sONf1m8oovbu3NU7cWYaiEzIAQ9Z4apiOTe4EDbc/2hOQYKRYYJSNN5kwOkbnTfBqyhk2N1uV0rxVkiWpGmF4enGBBjSNHd5+3v3BhJkusn0DtYhTOezmCCJZOzXvs/tLSdJ0aoGuxFBggrZvcW7RIx1amowOORD91YZgBZIIAI0kUHExXEHo68ijLieVF1rTYNNgji0TOgYSlDDFbLcZQjeo1l6N65vOv/VpsyoB40OYc90G4Q2LG6QRgDR+gHImEn27MgmRuCNEsdSHBmJdXkgbJVtGdl8BpY5Rm6Te9MC2P/BdG2l58zcFQSS3Gh6eONe3g/XM2pmMM4z170d/eini8qJ9kGVakfKGcYHSSHWLIM8iyZCYIPjI5dWPBWoNsyq0DyY5pBiyMhB0WZAmCg7Z511bzWUiPMLLuoffIYc6Kj5t9h8SyagGlJre80C0Xst3UeS1wMuDys3IFyJs6Nm1xIWkLIUVE5G0pFHhunuDLWzxIOcsQcdci6q9F3FOKmSdN/SoWUw5EWfXCc5B21yHrWQirdzn3TCNbkBlJ9xnLBIEY5abuMLIENUehUMYc0nyPJCM2MmN6P+J9txcv9hdWWjEDPW2vnRXbJrv55q25gmB0IZ0bwODgg6hpnIXliydX/aLZ0tSGNrotaT9XCVk9i0xumAHOGBz2JB+Awj5Pl20d4zPGKSXtLMkG7iufvAKweslKDOx/BNk02TDH8+gNDpWNU9oU8jkzf+ZFcIhcoZNumK451QcvmdOdL5DV3ZRSXpYXWdFJEDuysNtsBEeIEG1E0rMc4dLjEA7MgW/mmZNXmlo7JECUzVz5fsxc9y+wVZwOe3Ax4KylEPbCzYelTkfOxgJ2FWB1uwhEMkrWbTSjm9GcI9/C8t2O9i0/mLza8y3DDDyw6Wdo3/nK2rAG+p9deSFp5iADI+3bmel25KgDc7Zhs++5Zk8zWCFbW10u2DwEl4egJfhyZFAbQWUjKAv5AbqzCKJkxVS2jAJ/JupmvXHyCkUrpPYTpEMMVqxw2Usn90699TTfSwYnGzucjOxZKZ5jHZu/S/bvhqMwYlansJHZwaDKol4heqiMdZRebNwQBkkV6awficx0xG2LMH/VZ7Bo+QepOQ/NbL5DBsSDVr/gXAx7F2LUPZveyw9r2srCzVPYMz5RLwR1o9uVJSeVIh/3MHiwwO8Ygx+t8P6VJTvsBDKSB2CJ/+2ekb+06pr6yb+AhQxUZK6SEri9dKtZOzyJJPqf09vTs/V6ar8UUtExpCcGmLYYnMFqJC0hSg0rLIkYPMkJOHJ5urQA0qxwmbIGpCxDGO66GWORZyVELjlObVZAiW0JWah6cu9rt8279kz+BXRu/Qay0R447T4sWXQ5Viwq9gUPtDyB/ke/hFBkDwLRYdgzKdjdjIJDbiTMCo9UgZl+ls1uBmNjZE0LoikbA80KJLzT0Ljmg+Y6h9IOORBlixa8DSnfdFjcM1j7KlnbbEhnktzGkUp1Ubcwc9QXwZppo0i2UUAjPgJXOoyOx6/B9p3PbwuzORjcWON0MS9ksJeyvoEetHQ92+fb33sfAws7lZIP9kQKlvEDk79QjzaeSi3rNJOkPCqu+ADZOA5foAQuXwCJdJaswYpBrWhn4JKnzspkYwxq2hiJ9mOw78HJK5FtsqNk/jyvVUsGDUzufW329K7N5p6yA9t/xjwcYPQex9I1zx+MkIv1wpNixc720evEeU4WWerYjF1D28icmg7LgMRRSFByMPJXJ4R7Fgo+ueWSyascWjssQJQFPbNI//ORcc1BzF5C1qAYtiRMTdTI3zzo7qwZuscU8hm66mSQBZelC2TmJbuxZ8+zYFy4/H2wOiuRzDjRvOmVjWKpra7H7OmzJr8xuCJzZFCCDMEUJciSdLUHzc+oNu4tYaGUkEHcZDK6M0acyPRQK6Yw4fVjPFCLtLOGrs6GEAOtysRulMcGEYxT76aKC3hqyFWc7jvrCyPjzsFWOcfsf622bom0bKz4JU8dy83pfGEjeTrawco/Tl2eQcxlRdxNBqfu1cDeQo7Rf45gy1fxmBlI52chbVvAZ16FuSd8EQtWfWDyKofWDhsQZ888F7XHfQIJ5yxkvfP5oGRIS5CuIABrwUt3YKNOsxN8Xti432n3kD1YexllOxMd8DDifK4VnNVI09XnUtQ5r9HKZ7yRDFHJe+XpbsdNO9xBS1LbZj0zGe1WMLdCZGs70jHekxjzBsgcjgqyeoGudwLWHLWXNUVNycK1lvE5/AiHO9Db/ktG2oMMblj5+Fzl058Nhl6rHbd4mfks5NKUezlKw+c3kg8N7maQ1EOcjpH5EqxAFkbEbvMcVnocT2GcujxKpiS1Z51kxjpYrbMw+/hDGNW/iB02IB606euuIIMsQtY+i5pRhV/FQi0jKJk51Fl27tPIZ+lsiy1iei68dN/e5MDkFYo2Y9mH6TbVBhhBx2sc26f2vAIZ0WWhQIhHkHjO6yqWLvkoUs6FmMA8shrTbKmm+wrATZfozTvhklbMsoDzPK/AkIUuetw9FwkGLC5fFcI9N8Kf3IdANg2vpQIWzQKkdfQ8Kw+mxPIEIiuH1ebGeH+T2bV7740I999jerusFjWwJ6FY2JkLMN0uOFK98Fk6uA0wboySECxwWKp4TK05/3DaYQeibPZxH6CbqCaQypG0JpC2D1L4DTKzRskiKR7hYBTqpevOw22NIUAt6CYQOzY+H3AWd5C1eBy27LON0a/W6medBbePjAhKBbrY3fuflQKNqz8Fi/94gms1JmwzkLSHqA2jyCU64cn3wGud4Hk2BjG1CDvmYNQ7jy5wmumxcSX7WJE6CVxGyvytbskbsXPPdoyMvbo+2RczDfK1UPtlcypOakYN/B3tgC3aTckwRu3I6N4WQ56uOW91kBHVNurgM2SpB/MkBQYrznLkXAuQdsxC/frLihc+jHZEgCjz15wEe7ARKZcWRU8iSTGfZg3NUuTnqA3zNi+RZoVLHevUZs4U3V5udPLsojl95aaR2ZJ97e5Zg7Y8LrfRpfbkMPVe8V7RkV4MbniIwdFMWF0LAfc8FmaVaYaxkj1tEQZaiQKs+Urm5mzk3dTBPoLQFkAhQT04MUbmYfBlqyezFrVpxp5HeWjqgoCxrjvoUeLMN01udTN48iLM6N+ZHoYrF2EAkyAQM3w2NV37CUQGKAwKEyz+BBk0avczKJmBjH8JQfihyaseXrP9J23y78Nq/pJpSEl3pQvUieWwphzUWIxaCxFmqPo5yYb+AKKjw/CnI8Skl0K/DJ19m9E7vgc1VavR0/cMfLk+pBntls96/eSVX7kN7H0E1rZt8CWcDEiq4M2Vw8O/swe2wdHVCW80CVcqC8YZjCytLEoP/Dnq2HQ52ZiaigCzMRhzu+r5t5Y3ZgTOcNpL/WqnPhNFxT0rMO24Yo9EbXktSkIvbEscaNvCAOmVu8Xk8IOITfTB5ipD9ey3IptMIDO6GdnoAUGNcmccTtBr5KthZ4Vy2OME7ijzOc/AxIWsi4Gfsw5x6t2KmqnTr6/EDssa2ht33Yi6Sta2F2kMHe8/gHjrn6jNtrD2HmAmDSNjdSKl2XHeCsQGelHDTMzby+jy5mBQoz3Kp2PRws9jK7VhWWwzktEsyue+HxWNr7zvc2jvXYgfOICd9zyETCQLp1rbDVekzSpgVgZR6o9MM8rXayzSNk24T8FNt+bJFvhpgcXrQdqldrc8I1IXcsFaBBltV/NSFYEh5J0p5KpOgXPW8aieexwGWh6CczxMIDB4cdrhnbYC/rJn2zhfqQ3v/P8wNNoHq38hZi/7ZyQjI5jYfSVy8R2wOnxwOcaoCbuoxxvIlvNZm9r5LB1IsPIn8zWURrOR8zUiQ0CWVx2P+prFaGm7B9n4OKqr16Gk4tD0iT/XDgsQn9r+U3JCEm66gVVLXtg4un/TN+FLPw5/pp2iOW0631PUVA5nAEkyYpncr92FiD2AIbV9lTTCWXoBhTWDld7fIjuRhju4EtPXvjK3Et90J4bbDuCp+++hYGcgRTCYkdWad2LNKXP4t8awWJDO51CgnrJST7kcNvgZ2PgLGv7gQnyCbo+/uz05ZBi1jqRdGA+PIDneiXSkD5l0BgNJvQbDiWnTS1BVVomQtxKu8hq4p9XDMb0G0YAXdQtfXffZ8JaPYzQaRtZ/HBatIhCjIxjf/DnKmd1IFYLwepluMrNGPTmtJdzXiVhhBPFcJSXEShScp2DWqR+ZvBqDnF3XskISuASiLRWihqzCgrWHNoo+LK7ZbnVjItKBfC6Ksf5NmOjfhbLaZ2fvdfZtI/NoWmYKVjKNor8cN7fTh2yGYppfrHbKWZve9BQnO1HrMLqbPedCjPQ9brqp1AwUanh5jNhx7+9Q2LIBex98BHs2b8aCNStQsXAOcgS5jZo17w8i62VlCJQgGWRlCLqRCbmR9pFBmI5wJouhSBqdY3G0D0cwnEpiKBFB7+gAukejGNYSdl4XKqp9qK9vQEV5HebMasDi6fUopW60RxIY7OxGV0c39u5rRiKXwbS5jXBXzp5M4cu38YF9yI08xvwiY7sbUVWzBokoWbj/brgLrASsWE6Xj3mfJyPymGyKlXyCQYn6lWcx4FuM0tlvgjvwbN/48MBTSDLIyqbpFWxljPRLUV67cvLXQ2OHhREP2sat34clEyGbODBt1qXwlzdM/gLs3Xw1vIm98CabmKgRpowakZowk7Gb3guvI8NzBzBB9xhjhjvKLsOMhW/D/s3/A2tshJkegqVuNepfxri4TVf+ByLbmuD3eFC5bD48y2djzGtjUOSAP0vNxKg9w+hSI1HS9gyytgQ1VZpFStedtcLO4xxZcmfOaaK9XCFMRpxgJcohmfIgkiRTJ4dgT9EFToSRGI8gER6GJ55BbSYAj8OJgldvrXJjb+8gUFmKeaeuQ+Vxp6Gk6pWBsXfPH2Ad/CNSlBQToXVYsuz9aNp6LcrH76aH2YMJeg2Xv5a6MYdsIsO0pgEfgzu/37Bh1jIbjc9533RP19PoH3yIgWMMTkcJVh/3mclfDq0d1mBlfLzdRLm2XAzpkVa66yA8weKQ+sq6NRge3Ez3EWFAkGGkZyUbMnq2u5HUPBA70ZgcIBOmSLEMEhxLEaxehiGyqzUbhz2TRtKRRVnNceZ6L2ab/vAdPH3D1UhFRlHSUI2GE1bDt2g+Rqx2somPoLMizgoQJwiTYAWw2KgUC8hY6HLpujW4iilD2qohUw4knFZEnQUk3FZGnQSvz4ucvwS2QCUCwRKUlJSgfPYceBpnoHThPMxZtBKlziokE2kMjg9jLJ9F7eIF8JaEsGv7DpD/UWC07qt5+WCcGNiEgrolqQWDjW+C31eFwf5nEEw1m27GnMuLgj1EtaG3IrDyUFrkHQlWLg3xamAkXYXSupUY6dmNzr2/RXJiHyt8Bi4y4Yq1/zJ5l0Nvh7X5ZjEZzOmW9vMglxtCf/MNGH3O2MKklQVvUReVxwzNsuRI1vm8GWCQJ0tZrWQjzfMgI5kgghYqW072VLNFjJ9RbGx54YicgX1PoOnmH6LziY0osTux4LgVmH7mOiRmVWLIyVDYbocnVYCTwNAQKCcDEh/BF6RWLGEaSnJWBHMMKliQTs3XJnD5FSlnGnFXChN2CyIWNzc7tVeOz6ABsoqVg4innawgPsT9FWgjmz7d1YNd/YOwVdVizsknoX7VSsxesQrBYDWat7cg1Z9E/7an0P8yG7y1jGiGLhcWD6qrisFgTv+xsqQ1NYN5amUeOliBLPkCCllG1JkUN82bsZAULOjdfCsm2u+GJbkfjtQogjY/lh7/SXOtw2WHvfmmqnIVM45sE+9jQUXRP7ATgyPNqKVbHR3cYZoabLlR5FLDpjDdznIErZVm4k6mMMFgoIbR3Xw4SlbC7a+D0+nHSOdjsHnH6L+9CAZWIxSYVrzZpPkrGtBxoAmBMhb+0jXUO43o7x9F5/5mTHR3wDkxDC91lYOBkXdsAv5YHKF0km46SfCl4dH7VQpaLVZNTRq4wJQRqAXKBOoI5iIDGv7uYBTtyFvNgp0OHuOxFhhZZ1FCZh1tacN9d9yBgtuBFaevR82iRUhXkB2pzcKseIWQ2hkrMJbxYTzlQ1d/Ar0jMQxGk+gbGWNUPE6X2Y/BwW7eLwc/Naws3LsR0Yk+wFmJshmnmX39g7t4f2rBeAxBlxvODIOv8TFWXgY0WqGC+3LOabA5lzKKLkEm0UNi6IXDoSFhVQg2vAHeSU91uOywasTnWtOWa1g7B5FIRmBndOx01sLNjHBkOmGJ7WVI22kamb32CrhzNUgXRhG19iHpno2Cfy0RugTlNUsQ79iKschmZBwHKLxnYvHKrxavv3833Y4dbc1dGB0Zx56dOzHc30uezeF1p56MpQtmYPPj98NriyM60olMTEsSF6ij+JFI8n4Endtj3KaHLtZfXga73wc73a8r6KOkoPbyaYliFSp5iazjJwM58jayYMYwuZMurpyRcvPTz+Cxpx7FopPXkQXJxAws7I4A+scKuO+R7Xhm4zZMhGMYGYnA7fIjS6ZyqXFdciCbhj/gxoIFczF9ei3KK+jyqzz8XocGPwOnzi3Uf01whxowc82zWq99x3eQHdyKysIAQi4yZCyGGIOiqJ3BWGAGrIG5dCSzkEqlGPW3m54ZlydE6VGD+cc/G0EfLjtiQJS1Nt2DWGQ72a8fHnsepe4KszJEkjU0mz1At9IFK5nJka6C1ZlF2pVEyrEM9pJzUUc3L+vbfg/CEzuRQAuqp52JifgcjIw7sX13Jx59eDPa2xngRJJGG1novufOrkAy2oNPX/FeLJxdhwyZ0ENX7HHaqM/IbARBKpthAdHtJhMEZQJpRo8xFmQqmUIuQaaJJZCMx5GJMz10c46QhwGBC5W+cpSXVsBZWgp/GfUvr7l/0yaM9vZh0fGrEJrXiAEn3TjdfX9vFLffuB07Ng4hRFDH4+NM+zABWICVjBdPRIllvViI4DYDQNyIxwhwfjrcJWYpl0X1Hpy0MoCGWRFU1jeiccGFSDI9DdNnoX3vTxBCB1IDzxCErQw88vTejaxr8yhxFhJ0ZdS6XQgnBpGhzrDaq1nxGuErnYHpr6I99rXaEQWibP/uG5GN7IY93Y4ARbXLNoNsRPGfZ6FYmhm29qKQpMC2ax1rBgOO4zFtxRfJop7JK5A8I8PYt+13iEyUE4BZPPT4DjQ1d5L7rAiEypnpfrKKH2edcxp27ngaJfRqixdUYfXK2ZQCcQTcBGGOQE+TOQgSm80GBzc7Ayar5BfdroUMZ+WnFlgyS9Px00JXLZGdtWSR0uSqOJUqQToiAJN9EgRTmi5x6cIF8FWVIeFzY4gXzDndaN43gA0PjiAzVonTTz8VN/3+F/jwR98Brz/PdE/A7bES+Am64iGMjIYxOhRFd9cAenpHMRoBotE8XOY9L71MTTMWLVuL4054G+YtnoWKigQ1bis9y25ko/uY1jEGdzbYPHMZNc+BS9MYeG4suxlxPn/BPQNwNWLZyuI4Rk2jmDk56Wo43IGK0D9Ig/ZLWeuma2CL7mC0FoXTVYW8Z44Zze3MDzCC7kSa7jqZI0O4yhkBnoS5a/9p8kygZec2DHSPY8eOA7j3ge1o7+I1fD6EKgKYvaAGK9cuR2lFBTZsJGsS0ONjEWq4KDyeJD74wUv49ygLijrQxaiXOUGvqSkq3EewiZEYfAiAAmNRFzK4oS6U2yxQAxb4t940ZSeAXQyi8qxEOTsDBKfDaLTOvfvQWF+HippqjOfyGM3mGUTYMTyQxIP3tKF9fwrTptVTN0dhsSWwfOU8VNcGWIEcDOry8PkdZEnNv+bD8l4JRtwj0QKGRzLYt7kZTTv2IhEbxdAQFXcshFlzqnD22TNw+olllDV9SMeYhw676XYs2MqpASk3KHMKZMlkopN5GkDaNxdL/sri80PjHaj8GyuHTZUdFUAcad+GdPf9SCdbCLQUg+ZF1C/z4GSh2S3jdB1diJMhc8zQnG0BFq1+tnfm/358Nx55YCuamvbDQq1W21CNZcsW4pT1x8Ff6sTYxBgeeewJtLT30d2T5ewuvOlN55nVsBLxQZxxxvHIJOPIMSDJWjRRKsfYg9E5C12sZ4CYy8FJJnMoWMnzd3KQmFFDCGRiUU3+UkStbrs0o3sBemx0BANdXVg4by5/ttOrUnYwms3Djf6+MLbv6kE07sAoKa65uYWBXCWvmEeS6Zk9dwZKSnxkc4sBoz/gRGV1CZnSjWTWQYYrg9sWoMyIY2CwE3t392Pj050Y7OtC0BPBujWVOPfsZaioDBmpkYXdtFbYybbW9DYDRKSDcPhmY+aJ/2ye40jaUQHE6OgAom2Pkvn2IpZuYQnXwO9bBlu2ggEN45LqCjLZZhZilJHviWiYsQ6/u/UGPPzQbmx9apyuOY0586tw4ilLsGDxNFSW+RBkULG/uR0PPvwEYokMhoZH6M5tOPW0k7B27QoGCwVc/4uf4IzTTkEtr+90MIDQAFFGm1odwSbWM70RTIDeGMBIGppKQF1YYOFnJ2LIxxPIpLLUpzZWEhcDLq2a5TJBjdPvxXgswiAmw7QRiA4nXIEyRMjKNgYq+/a3I0o9N2fxIgwMjGLf3nZ0tA2it2eEUX8l/P4g3XzcaNvKqhDB6ITbS/1KCRCZSPLvkJEbFlsGHl8eE+NZdOyPodRXht525uNEM9592RuoH6chrfnJLlae/ARsqS5kM5tZqWLwWI5DxZx3MBB7fivDkbDDDkStMvtiC3zKOvdeR0Hegmx8FB5HCTzuRahb+W5Ex3p4XhcaZq7DI4/chYcebsVjT2yjq2XEl4zirZe+DsuWT0NFSTUh4UU2lcQ9d99LpvMxEk2QMQZZWAWcde7xWL5iLtwEZGd7N2749W+xaOFsvPni16GQGEZgZBDB6ATSDETiExMs3Ai12TBZkbqOYCyo75HZRY/NQIIgpbtWP3SeAEzKcxOENka7/opyeEqDIHEhS/05a8lCEMKMtssxFGFw4yrBw48+hfGJYZxx1qkoLSlnZD+ByHgGY2NxdHcOoIUaNxJOKPhGKYOfiYkI3bO66JIIlbhRXqlVW73oHxonsLVAQRDOXCn1NNmPwV+20IJ3XHYOAhV6kSUrkz0GH7qRD+8lO04w4Cmjy16M2YsPz1SAl7IjyoitW7Zh1qoVk9+KtnfHVbAm9lAvjsDimAN3xcmYPvtcutUU7n3wT7j1lm146vEWRqsZrD1lIV73puWs9W4zEzAXC6K7OY37738IoVAZOtvGMTwURll5EJe89VzMnVtFcOfR1dmFn//0elx6ydvQ3rYPDQ0hVLqpvR56GKEhCnsCLpPKmIJPa61ssZ3bbUBmY8DkDAUIKmpYv9aIIQP6PAym6Jo9Aeh1aG7uSxGiA1EGFvkkpi2ah4yDjt3qRjRB4FKvPfn0Fmx+5km67Vk48YR1qK+fZpqNotGExCcjZQZmjOA7O3vpxkdxgAwaCccQZvDj8WQJQkb1KQfBzDiDwPY5SlHlr0YhlWAE3oG6WUm898MXYCwcgYOBTyBAbRveAkwcYLBUh/LG8+EOzEZp8Nn5M/uZpnnrDv8KvrIjCsSWpzdj9rrnj38bHNyNRN8NSEX2IesqQ869AEuXfQq33Powrv3Z3WSyEdJRFh/82Fuxdj2DGsco3RR1Zv8wHvvTTrTvC6OidhoOdDYTQDnU1pXjwjeciyq1A6pheXAMX/3Sl/HPn7gCC+c2UltuRXvHPpzFAth3x61ItbeiqoqAZWhdWlNDRqmElcGPyx+gBtXCSdR6BBsvTvdtl1DERD5uBrvaFdUTwO68uiczjD7bMZyOEIhzYHX7GQUXGO94IS+/t6kDcxoa0dPWhnvvvQszZtThoovpSmfUIhwZJSDJWnTnDrvbNOGo+aZAHRpmsJVNk7H5e99wBGMxjWgvjpOsLalihFuKvoEWWHyDWLSyAUFvGZIT47CkB1Fi60Pzzg3YvN8CZ/Vq+OtKUBoK4rzTPoiu7bthzfhRv6borYaGGaQchuFfB+2o0Ih/aW3bvotMvAfhDJnBtxSdvbX4zvf/wAyOYcb0Grz/PW/BrFl18DCybOrejbbOJmx66hlMD85FYtyKnnA/kvYILnrzmViwoAE2mwWWrAtt+/vwx9/fhss/8F7UVNKFMxLXynT33fMwKvwlOGf1AjhSY/BRe2XodhP0i1mCLqUImcFGnkGMmoSYbSgwGlHGKfvyds0+zJjfrakcgnmyI/13Z2cbRjJR1C+mRlTXpFkNzYfBoRj2NXdh7erVqC4rMWy/bdsmPPrYg0imYpQZi7Fo0UL4WAEcDrdp2/SanhQ+B8VHgbq1+Mpepk1/M6ry2h1wEqgWRu4PP/YIKhutmDYriImhCCroBYLWMQx27MfVV9+HP9zfgTESZIYVWJP+7Ck7FjXMxvIF61BSVYKqGX6U13nwgff+u4rjsNhRCcTwSAdC5TOwb9ND6OvP49tX3UOG68WK4+fi4jetx4zaKvS20ZWGC3ho4wOwOmMI+cmm+4dQ5q1E3YIQTr1wDd2XXuatNa3t2LZpP5qb+nDqKaegptqPYBlBprdJ5d3Yv2cYrfv7cfIJC8gCdhY03TL/U4OyNKCFUbCWJc4rpuXfYsSCXWxIhBKXDFUY2MgZA/6CHSGSlCOVQvOBfQhb05ixfCFidPc+VylsGQ+aOwax60AbTj3jBLgIYrVbFpfIszHSDlMudDCKbiMrxlFeVoVgMITycq2/o0EzPtO+abczZlcrgv5LpwhC6tF4hu47j407duLUC5agfoYLhUgY5dZROKLNePDBXfjeT59BU+e46SuPqSWKOlYtQ1aeL5C7XKyEWpQpl8AVV7wD5513Ks4449BPHzgqgShr2r6NrsKDb33nOmw5MIzZSxahqt6DhXMqERsdxZ6t/bBJcJdZMTDSApctgdVzlmP+9LmonhmAzZchEK1obWnG/qYD8Hp8WLxoCSory8mEKXrWAnJ08eoGdDpDuPuu+xkEeHHc2uV0oUm6RHuxeUaRCSNoqxryCDy1G8rUPKPSE/j0k3IxncsixOuVE4i+TA779uxExJ7GzNVLECcQPc4S2HM+7GCEfKC3D2ecs47MFjfXVlCSSfMfsprb7eM+xvAEoiLn4ZERBisT1IdhgpYVgfdSl2KarO32ukzzUz7BwIZ6tmApRc/oBE5/40rKEhsCaaYp0Y1Y5wZc88tn8PPbmgldygimPckYRnNXLNSQWs/R4SYqef98hlUrkUYZPc673v0mfP4L/4Xq6kPrpo/YnJW/Zbs2b2Ume9DfO8oI+VG4S/044ZTjGWR0oLWpBeMMKILUbCNj3bB7o1i4ZDqWLpqFE9asQE1FgAEJRfzgODY/uQvhwSiqSivoBpegJGQnC07A5bQjnaBrI1NqLSxNPAqV2bBj2w5UVUyDh4WrzWKlFiTjWR1kQAu5UYAkw1otGtRQMAMb1N4ol2yhj8sJjQSc2j8D3Dfc3YlkIYuS+lpew410mucw0u3sZlTLcxtmVJN5Yrwm9/MeQli+IIZUQ3na3Mvrs6O03IfpDdWYO68BjZQk06ZXo7q2EqWVIdRPq0RNVSlmNtbx90ZU1tYgTahVTGMwRY1sYzjvSEQR6e9DX8SBsTwj9xEtQUwty8pWIAtTVFA6iO1ZEVgpCjkybsGNJM9tb+tCb387I/0Y5szWglqHxiR4jjpbsnolvIECznzDiXAG86it9SJCd+0spMl8FmbQBLzcv/60xTiPrHLiqoVYunAuo1YbXWAcDz7yELbu3MHvdqxYsxSrj2cG2nNkrCQzPkc3m6B7TcHuUKGn6J6TKC8ppf5cjC2bm+B0aUR4CumMolO90oHcSGY0voMspKVD1INS0IIA6qcls7gKdGzcb3MxUOF9M5kYLGND8PIkvbU0R42ouThRsmWcrrSyPFBsNCcQ8jmtPZM1LtLB6DtP8OaoG/XqjDyf2S5g8jOb1QDdHJ/LCk/AitJSNyuXF2WlQQLWR23rw+hYLyvIBMpdToRsbrp+K6LSjpWzUTFzQbFSkQUz3KSBNQVCCwsYaudz5BP0JGR23VfsG4km8bvf3Ylbbj60b4A4KhlRVl5eaT6jiVE88tDDdBMh1NVUYfnSxTj99JMxf2EDZs+tRXVVEG4nXQs1mVzwPfc9QLaoxrwFczB7/kx4fA5kGNUKgHKrVgJZLtViI8NpXgr3m3UEC07U1MzHTb/7A045dQXBI4CqGcWJVCJpjhFQtBXrr8YGaSOnEqAO/p7LsRBZ8DrWLxZq2ou8xwNn40zkyIjxlPqPKRdamzFzVjWDEacBtbmmAbn553mbaVyXO+bfOlb7JCnUI+31KpBhxcjquRRZO9Dd2QW3w0IdXWsCmPDYKDZs2YKrrvs9fn/bM2ht7+QVLCRuVkgC0emWV1BDRLEn6fjjjkOa0iSbSVHCkFupjTPpNJr2NWNoqBvnnns+j556O2o14nPtxpt+T32UwIknrkeSWkj6LsXoNlTqQSodxdPPPInt23ahqqoOp592JvwansWab6GrSSZjzPgMdaDNrB6RZyEWC/mgEUxkswLsLPASNLf04o7b7sA/f+qDsLsSiFOnUcKbSVNUccwwXoTHK7Aw1yGQFTyoNJMEr0XtiQwCGsJhNN9xB2yz5sB/8nqEKSoTSYI25cF9996JCy48lYzMykFAPT89RTPA5yY2lqmYBAptFoI9QyApuEgrSveWUG54kCDdPvTAg6arcM7sRvzp7jvw059chXCY3oD6U3ci3nhdPjUrZEYAJtBLqI3XrVuHt7zlrVixYqUZaXTRRRdjaHCseH9WAI32cVHyvP/9l+G73/2JSdNU2lEPxOa2PRgbieG22/6Es856HYW8y7io8cgAtm57Gq1tTZgzZzZOOeVURsP1iESiRfFP96IMd9JVCnzqkVCmCzPPFjwPoIsVw7FI+GHj/wHcccszaJxZjQVL1WRC91ygXrQQwGRUS15/HwSh7sFC0ghxFlaKQOXNCUQLGscj2H/rH+BZugzO445HhPexWH0Y643j3j/dgUvf9QYeS1erQRQvYoalzScPY7oymQyfW001rGDUdjpLzTokYTjpgtMpBUN+3H/v/XiUunrDM09haHjUsLVTgRlPUBW0UB+LYQusTKESP049dR0j4/OwePFiVlYn4nG95IeVhp+f/OSnsWPHHvOoPMUQtvLvM5/9OL7xXz9U8qbMjmogDg33YHB4iKACNm3cgXuZyRqpIpdRVR0iWOro4qbD7/cSbGqO4aMwg7XaaY5AlPBRzReANMDULAun5hdTyNoEQn6KEfkhDen3V2Gwy40f/uj7+MSnL+Z3/sZrGwCQNa1aVFRmVc+LXCWBaHWY+6cJTAHSTaaqGxwmEG+FZ8kS2NccpxUF+JsLTdsYMTftxhsvPotnRlnGRNKfK8bzzbhtptVO4KUZXAiMbrr6PBOrNxJo2FoizvMZXGzbshsbnt7CPHoAYwSg0uygC1A+EK6mEmroQ7AsRAlSw4q7Fhdf/EZUU+4oOwTONK/PWxo5kmHU39raii9+8Wto3t9qzldzlgKpdKaAT3zicnzn2y/xsqRXYEc9I7a1H8DuvbsYCQfw+GNPYdmyJQTgdDKXhrUraKCWY+6psFSgSWrFfDZHV+U04BFoi24OZjSyjrNadawOnwSiYUQ6Z02CShVw+80b0NnRjZWr5+C0M1byXGpMCn7pSAsDFP7De6tHgwxJitCbCXSZtAmEsvARJKH2NrTddRfKyIb2NWuQdvqQytiwa8N+BiJJnEwdms5EeAUNdlVinm8CkgpGFacYLNG1chMY1LuTzuTR1zdI5tuCZ57YhAfuf8Q0+WhOj9y3jrMTPMW8sWH6tGmYMasW605ejZNOPoEypoJX11RdBSWsuKztNs0ZIuDtNgfPI7M7XWhpbsP3rvwRNm7YZiqblXmu1ZzdHic++KF347vfnpoXNR21QPzj7b/A009twOYtu1jYNnzzm9/Etq3bkUjEsYpRtZuRaaGQMRGmgGEl66lVT5llYSbayAaGxVjIKhg9pgBZfFrunHTJRZNGZI3nv3+87XYkYhm87pyLqLeewplnr2bw4zD9voW8lm0rBjmwaBiDzqfYJ4voXmmGzxm6T7/NBcee3ei+7z7UnHQKbKtWI0aApDN2PHTXE0xDCq8/fz01qwAj5n6h6Tn0KhADEl5TblOAHBwi0+5vxlNPb8buXWTBZ7bx2XUMgcrNRpDqXG2aODVvzkyceNIJWLlqOZYsn4/SCj/Bx3zTfZlwSRiXWT46x/3MJ9M6oOBI+jPNgCrAQKUV3/vuVXj66a3MQ/3OBDILAwE/Lr30jXjf+96P49acUUz4q7SjDog33nQN7rnnfuza3YQ9e/Yzc1IoLanC1df8AMFgEI888giWMnKe3jCNAtpODWgj08XgYOSszFXkKvcikEhbqSD1hMVh93LZZApGk/pNAxqcLpfJ8AQjxXvvfxgpstXFF5/LjPGiafcoevvacdbZa6izHEyLNCEBSLcsU2Gh4NC/qgKaXGhYTMGKc88+9DxwP+pOWY/ckqUIs3AdzhB+9v3r+Tx+AsKFE05YQ51WYgAmsMn1CnAqElUeB+8p074wg5+nnn4a9/zpPhxobkdnV5eZlirZonxQCorjIqUJrVi4aD419Rk46YR1qKuv4TVsDL54HzUJ6SQeLwEpAOr+Aq7uq4n4yps8gyvlmYIgVcKmva248sofYMvm3WY/s5X3AyoqSvCmi87HNVf/yqT11dpRA8Rf/upHuOvOu02tGxwcMS5WDysVpj7XT3ziw3j7pW/H9u3bMTw8jJNPPpkFl2bwQlBRtxBbBErSALGoE1mgPFkjWpRxDofeo+ckCJ3Ui4w+qSfFkC4CMRqN4s677+a1gjjltJPhC2QITgr2iQC2b9mLslIfFi2ZBbtTIJzgxgsTgHRe/CxOKdC4Q7AyKFixEuDuffvR++ADmHPOuYjOmYO4JsDH8vjlNTfi3e96G5pbd2D/gSb4vAGsoYacw2MExFRKQZXaEvPUp35ECMCbb74Ft9xyC0ZHxzA+Pm70mwpNLjdH4AiAxBI8XgfWrl2D1517JhYtno/q6gqyqjQmpQnPkH4tms7mRnYr5vAkCAnGopfgJtEs2uPfasay8lnV9fi5z30JzQe6zf0UScukW9/+tjfjqqt+Yb6/GjviQLzhhp/hF7+gG356I2IxugtmltxpRrWbpn/1/bjjV+I73/mGYcWrr/4JzjyTmb1oEUZGhglUNzM5Qbeo96Nk4fX4yRbUgyz80tIK47ImJsiaBKMKLqOlI5jJoVCI7NKEuwnChYsWY90JpyDPwnFoVQnynKXgx5ZnOvDAvU/hokvWY9Z87yQQmaqcrwhEHckEmu5CFoyFot/G64sRBx55FDOZzvyyZRiIpxGZyOKePz6Md73rrSz6KAONBLq7B/DUk08x+m/FiuUrcNppp6GystJUtptuugm///3vMDamtcaLWtewlJuVjFfQcyh/1Puyfv3JuPjNF2L58iUoLQvASb0bDo8wTydM/jidZPS0gjaeYIxnvigQBT4xvT5lBGLOQo3uMdMUNNXi0kvfx8+4YWOZCMNGJvjoR9/LMnp1TTtHDIjf+/7X8KMfXsWC6GMm86GZDEW4YoMsgaNMsTGw8PjdmMno+D3vfSfOOOM0o2ckoB9j4PKey95jXs7j0Jz7ApkPSWYvmYk12OMK8HoOk3kqMDGh06ECERhziEQiaNrfhCeffBznnHM25s6fa14SbuU5qTjB7PWZqHTfjmH87rf34eK3noRlq8sJNA1QJRPk/CyyoutUPJ3nuRpIICDaGUg4du/FyOOPY/rpp2Owtg6WQCnaOgfRvKMT5557uunVUTpUWRQ8KarfvHkr/vjHP6CtrZ1eYRD9/QMGIEWgFBlQ2lf30kCMUIkPZ599Bt7+9rdj8ZL5rIgJSoyYcb+ZTIL5YjOspUqiC1j00iLzUnelehJFk2BUUCOQmx+NfpaJGfXySlY2lo3T6UYqmTNtum9/27vNYF6lRwGO0pnj+Z/914/hm//9o8nzX74dViDedfdv8cQTT+GPf7gLTU0txmWo5gkcyaRa8eUubfB4vKiuqcaKFUtxkWr5isXUchZEY+N8aLINAfXHP9xhBr+ee+45dMmJYuOw3n+iRmVGtvTaJnP0qjVNx5RX0vXl2uSKd+/eRTCG8brXn0NGcfO+rAguFQldbaEc6STIYGE8eO9G7N7Rhre/8yzMWRgkALS2IB9G7YlGHbLyiD34v5atExClEa07eP0NG9BAIEZmzkKOLvian/wS6487Bwvmz0IyM2oiewUGo6PjDED24f77HsS9991jBjow9UZC6B0wSbKhRtuofTQYKsGMxnqccOJxOP+C87BgwXzmnaYPjJp0CTB2J1NGAKb5EClupqWAlceSF8tPgswAkAk1n8qrg0DUFz1gEYQySR815quCZ7O8TsGNiXASV1zxabS0aHEt6kpmhdLLq+BjH3s3fkAt/ErssAHx1lt/hS9/5SvYt7fFdKbbmWGqQRrGYiW3KxPEDC6CbMGCBXjTxRdj2bLFCJX5DOPFk2FMn15jHjabKWAiksKNN/4Ob7nkrfAHGVHqBULWIiPa9cqHQpH5BBar+ngn4ujr66PLG+FnrxnvN3/BXKaMWcfIW8FOOh9Fmpmq19zGow7cfdcD2LN7N+bNbcRpZxyH0nJGzZZnG6ENEAuKmtWup3c2M5ghEF0sQMu27Yhv3oy69esRbmzEQCyN97z/o/j6v38bq1ctQzQxgN7eHtMSoPbRZ555hiymphY1NRWbXRQMyOQxp0+vw5Ili3Da6acyCl5rJtqLGdX9JoIWUPU9myU78RzzCmD+ZV7+o+9Mn1oTzHQHY/ycbAfVcYLBn4GoWqUmKYHRXCPB8xWgMcBjBfV6yngteaYefOO//hc7duzk70Catd9mL0b7H/zgZfjeldfpYi/LDhsQ168/Dps2bWFGqeZxx+Rd1V5l3A0LU+1YimwrKipRW1dHlrMxugxSF3p5eJqZX4ZAwIva2nrUVE/Hju27DZued/5ZPJZM6VYTDguCtVYDEnTdBLViS0ubaRdURkt/qS3STLGknlTUaDOFyIzWAFemZ2LUiWeeaMHWjQcwfUYJzjx7GSPPWlNYxag5xTIiAAREMaNJu5XCgC6QbswHutptOxDbsQMzTz8Do3TNfZEovvq1b2PtsvVk+3Ls3b+NuvgJtLW2kZk1mGGyWYQmdtHf4qUFC2dj5YrVOPHEtaaCKh3q0UmlyJosfMkEPYPSpn50M3ZSS4wwk//cOqB1bvidSeM1dWE1VslV627656BrFkM+F4RKgQqLlVyroan9NS/v4SYgLdi1cz+uu/Z6PM1KpPP1DGrkl7yfPXs69jd18tyXZ4cFiFf/5Nv4p499xtRauYkE3bDJDz6nKqEyqOgGik0tRUYQQKVvlMlkGro9JVSiW2DShCNlTJjudf78eQgE3Zg2rRpl5SWoI1BLSkqNi+vo6DD3mjV7NrXmTAYvGhEtTcPCIvgUeVukgVhgBRaqgocnHt1CLSSYuXHWuSegcVbp5DkqbOlIAs6i70xQzgoHC06/5QRolpuPFWF0+16MN7di3snrkSivQITPfPWPr8OmZ3agf2wIYTJ8koGE2u2UPoFP58q1en1OLF68COvWHUf2Ow4zZjSw4jhMfghsavszgQXzTS5XFxDzmb+5HWQ2/WtlvopYeQQ1MNNtI2MJ6FkCP820Wxxw8PnFeBqVpPDHotXO6LXcLulqSYQsr+0k+wqUDhzY34abf/8HHDjQhr17m4xrVpQvVhS6lbTFS2aSKF7+mxMOCxCXLZ+HnTsPmExW7inRLo2YURMKH1wpUOKVc3Ih/Jf7BMaiy1D30sG/n2tFwKoWSmc64PF66PKtjBL5SX8ukKk3pb6+hiy4lJ91ZKNKs1xcIOAj69YiGAiY6yuTN2zYiaa97QyAoqiorCAQ1qCmtoyFz0LSojis7arx0kyKnKXZ1LCRJ8jUnaaYK8/r1LhL0L2nBb1t3Sipn4ZN+w/gjrv+hNaOLowMMALmuRnN4tcDy//qGfjYPgZmK1Ysw5suuoC6eCkrTdBEvFq9SwGH01VsrNYiT7pvMZ+KeVL81D59UT4/15hP3FWws7KwIul6YnEHtZ6joHXCBB5GwQXqdCYkJeRS3uTU60IC8LpDfDCPadf93U2/x5YtW1lhtXBTsQdHhOJ0UqLwuRTgSUJ99KMfwr/+65eLt38ZdsiB+MUvfwr/+82rDBuqTU+gWbduNU5nBDww0G90W1dnN5pbWqnjpEMExiJDSQ8WgVYEqM5VQejhNbpGv2nTdz2Fftd+I5onWcEM+2JBqGG7uDGYMI3fxQhdGdjQUEvNuIS6k5lYP5tADWHZikVYunShaRJSD4jbTWBn9bJERqQaSj/ZdqEWOjevQ0ggy2ureVuDUTvJGvfefR8eeOxxHOgZQJzPrhUbcjmLeR9L8TW63Mgmare+4A0X4B3veBtd8TwekzHPQWyzYFP8lG7k9Se7K4UqXsLc/WDxPb8Yi8/8l1agS9crQwpkQQWF+Tw9UyYJK5/JZSP72RjUWRgFkyiiDIDsbgVkTgz0juG3v7wJf7r7XgZ6EVbuLJ9F2ttmgkyTJF4/FHIzgPkYvvzlbxdv+ArskALxrnt+jU998j/Q3tbGDC3uq6wsw6c/80+46KI3EZhx02irhY4UyQqo4XAUPd296OnppbZr5WePca/hcGQSeFovUU0FzFBt3OdwCKCK2oqgVa4IcDJpUoHYzmMONv6qW/rZ9rQi8DVQIpu1M8L2kh1Thp10zowZ9ZgzZwbmL5xrphlUkilrGNGHGL266LoExIIas4kM9YB0s1Jdd83PcB8LjcGuWe1W0kp6N5Ygengvh5eAZEVRg/M555yOt771LdRUsyklokwDgy1GvBkCRA+ikeIyNe/ou2SEoldT8trzokB8MWOe8Rqmb9zhRZIFki2E4fZY4KGrdhZ8yMRsSMTTcGmco7OAkYkEfn/Ln/D7G27BSO+Q8TqqJCIDM8CE5nLbzDCyS95yCb7/vZcfnPylHVIgfuJT78Ev/u93ZJoEM4oPy1p06qnrSdmfNAGI2yP6V7ecRgQTUGrrY/ChgEWMpoKVa1X3m+aRjI+H6RK60NXVZdrZOjo60d0zaBqsmc2mEVv6UxiMjMfNuTKjNRVBC6Xc5FIl6IusWmRZfaq3xGpVjwkLnmwhN6yuMekruSmBXc+htrmKinJq0mkMmmrQ0DgNM2dMZ4DzJP7whz/xhgoaiu5WxOcWsJjGRMYCTYyvq63BmWecjDe88QLT/aaDNAZQjK2eHuOKmV6H3B0Tox4XMaJ0ovbreYva8C+BKHf/160gl05GdjCPGU8ha9VKFHHWIVaQlBsuSwl3O03+3v/4Q7jp1tvR1jbE/LDBwkqsiq/0qByVX3V11TjhxFV497vfidedW1yd7dXaIQPi7265Fl/96v9Q2B5gxlETkTTq6qvw+c9/BiefchKPkOBWU0MxAwUGAUWqS5Gfaq6JCAlIgVTgELOpqUdA8ng8phswzgJMs3arYVvgHOgfxMhIGP19w8btx+IpgjhFxo2ZXgaNt1OTRyQyYcAuezYHHBTobl6XEoLpkluXZFUfczGbxLhFIBvg6ijuNgsxkVWsCgCUVjd1FgvdSDYyIomVYJ2O6Y0NOON163H6SSejtrSMeozsroCJ11c2iO0EMN1X1xH76x56bhNcTeaRXLPJNtrB4it+TgKR1y3a5EHGmLdZunsC0a452I4c751GWo3dVjeyKStaD3Rj05Nb8MjDD2Hbrv3IsDLl6X7tDMbMo7AQ1aXaOHMGli9fhIsuvhCXvPn5b0J9tXbIgPiRj12G3/zmJhY8WYl3sDvsOPusU/HFL32BGcE6Rl0kxtFABbV/mdomoAmEUlymIIoZfPDTANVszHKCqOh+xWg5/q3hXZrYrl4UN08Q62mpuaxx+aOjowTqMHVoDBPRCbp8gjQaJ5AT/F7sbuvt6zddaxpMoMZeVQQFVgdN9zWVgYwtIKqCmUpCFBb4HAHNS8mlkFQDsIt60W3H4jkLsGBWA859/VlYyMJzMviwE6Q+RrOKYjM8Vn3AxecvAlHPe5DB1TskEwhlRSDyDx1kPp77qWP4KRo29mzalU+WvMuMnbTlIwyqImT7AAMTF7bt7cAzm7biiccfx+6d+0zwRQeuOsTghtfSvfn/okULcNza1TiL5fiOd0ztO5wPCRB/+esf4etf/1+0tuj1rMV9gaAPP/jB/2L16pV0n1Hj8hR9CohyqweBJlPZSwOaQlHGqoFYro7fxZnKbPM3cahjBUR9l0kHqv3MnMatCG66OJ1H8BiW5XEaeaOBoIlYkoFEwozAEQhHRjV1M0bwxkwvzNj4GKVFFENDw2ja10Jgy03y3gIi761rW+nqsjzfa8CVQYrBDdwWrGRQ9omPfBSLGxspRXyI0w0SCQaIziSfm5FzTnTJpBeBVkyfYWr+r2BAPx4EYZEZmWd6RnoGNYVlmcFF160jioxcZPKDgZ1YlFc2z+3id8BTmOCWRW/7GG6/dwPufHQLWjraqWFHmQLmJcvMbcjA+C1DwOpu/dd//Qy+8tVvmLRMtR0SIL7vA5fgxhv+SFCoDarIGpdf/i587GMfMgGAIs8cNZh57x0LxmTiwVqspzZWBNZfs4OgfaGpMA8+0nOuZXbp+8Hr6r7ar+OfvZZ2CbRiaYFTIE0Z7ZkylWpocNT0zvT3DZnxkpvIJJqlLh3lIoAERC2+5PA74acOvvw9l+Gdl1wMb8CD4ciIWTrPTqb2i1XtlCxmUtfkzY3pCzezU9sL88HoQ+Zpsfmk6K4F0oMtCX9u8ySQ9ZsqqhYIKDgIL1bSoeY9ePjWO/HIQ7vQ1jOKobiDET8rjy3Gmpw0PejldCp6G7BupRirwOt/6T//HV/4j6+YNEy1vfApX6P9/Prv4U9/eoARo7qbFAQUGFW5zIgTsZqEuDrjjTulS/szBpTxJvOVpNeSLLEHN+kkFrLZ5GRUzS0Uqn/e6H4tlA3ms7jl8lpxP2YmZGVzMaOjSku9qJ9WhWnTazB/fiNOO+1EXHjheXjd687icfFJ4ArlRRerwtcgiHQ0YSLNa354NX5+7c9ZqHGU+INwKoTmSSlF8DpTF/jzM2tTPkx+/hUzwR09iZrETPsdM1GsKP0rKWJhxVC3piZMqalF2ldypX94ENf98v8YRH4NP/n5Xdi/v9NExnqHs1XRuT4pKRrqga986T2YVs1TmY1KjaRDZOK1vwX2r5nuMaV2w29vxsDAOJzUhMa1sIw+9rGPoLyi1LTFCSAS3sWRIcVMfNYOFoTO0/Zqkqfr/fVC/DNQCQOzHQQrNzXZ+ANeuKjtSABkRUb0WsCTEbMKXWmVjBDj3H77bdi1ay/vJGZiYbNi8RcTbavzUA07AbrseDiOH37/Z/jlz6/nLVjQ3AL+EFyBANnz4LPyZs/dXsKUZXLLirIFQDGjom0tAK881DzpfM4Kl9OLivIa0yTz29/8Dp/82Gfxw//5GZoIwPFkBuPMhjTBV7BE+axj8JVbceLaEK78xvuxfEEIq5bVme46FYvqSzw++bb8Q2Av/dSvwG66+Wd44IHHTEZl6cfU/7pg4VxccMH5fIgoa2ixbSyZTE66EEWjAo2ScRB83A5+N6Dk369403XIPAc3cy3uf9520JTTAmYxXWrTVOFKS+k4LbYkzSbwqR1NzSzt7e349W9umASEDR7KC80lli7TlAVLhsDI8AKxFLVWgb8DP7jyJ/jBt38Ia0YjwwsIM4jLMK10oOY+f317ockNq6dFaTH5TEAyO6Hhbprb7HRqrKQDw0Pj+OX1N+GKf/oMrvz2j9F8sO+X6cwxuMs6KUICdOnTvahdU4/jT56GS85biJllMdQGU6iudDNq5r0sdpNDXV0dJJnu4jWm2F78SV+lff/7PzYZorJVQSrie9e73m3Es9PlMCvlFzvG9VtRbBuwHQScknMQjAe/m9+f+/li+577m0D3HBA+b5u8tjn+4OezmyYf2awaye2GQyu/2lxMp1hbadU0VkXnTlx11U/Nmwr0rFmCLkfgZlnJtA6NnsnJaL4mWEKd5TXNJRqSRlWC/7v21/jxD64x+jLLe1nsGuHNNB983uduf07XX5oyWEGIArRiPsoUpGkZO52jFoHbbrsL//avX8CXvvgNbNq4iyTAXzQWUS9LcjphCzrhbahGaO1S1J28HLVzfZg714IFDTkE0AdXNozSkI+A5Snc1PszNNRvgrhDYXriKbGv//dn8eSTW5gxzKpJMJ544gk45ZSTjZvzeFzcKJZZG42L40HajBlWlB3MfCVLkenzt4P7BaIXZ5LJ83Xs8wCo31Rg2vSbEqnPyc3s02fxd7G0KpJYQPcxUXfealzcXXf+Cffe94gBgZMP5icjzq2rQUjzrdMakJqBl6W2et58nLRgAcq4X30jurrc90033owf/vAa9OgdfKwwCoyKv/7Fc/Kz+KJvOf+Dm9LDjQztIoi9dMf0qXCwwmv0eUdXL267/W5847++bTbNvJNEspAIlC9WAtXq8cFXXYaqZbNRc+IKlM+rR8GraaphLJ3rQGMVmT87js7mLtx3/x4DRCsZX1NY29u7sGPnBl5r6s3kz1TY//38BtOjQQ9mTKNgzjv/bIRKPNQXGSRSEyxQ6TJFc8roYjOEvpsoV7v4TQ+cVwHJxfDTRQCoNUTry1gpWDSaRMCQyM+TqdRJr42xI8/WRQ4WGLWomMPKoIC7D255NWuowViJ5fmmKYb30HUV0+jTSW1rhkWRxnI8NkWXpx6Hwa5hXHP1/5k7Oamtgrz+fJ8Hb1jciAUBsmE6wxQ4zPId3kwCZ8+pxXmLp6GWvllcJb01kUnirrvvw/e/9SO0HWjn8RZ41NzEwMLNAMNlcfE5ma6Clo7X8+lt83a6caWb6WLacilq7LQN7ozdvMQ8NpagBrwZ//WN7+LKH/4UDz78JBJRRr98PjU3MbbWmAVYZvLodQ3wnjQPmF+LTLUb4ewQ/LZxnEJNuGa6E+5sDMm0G/971Rbs65B2zpu3lKrzZWh4HKNjYT7J1Btz/7Xb+y5/Kzrae+HzeoUvA4QTT1qHFSsXI53RaGNmBAV9cboin02ZygfTzDWNloHAov5aRrZqv7Wq/UC4mJz2qHfIET+m0AyASVdqX6R8K5IpN/PBG8sF6n5a64Ylyk/+zesLVGYT6YnOJjf9p+tqlLXWkTHtg6xNXgJM4YcamTVEPhnL4CdXXYseulWZk+ko5y1OrizHihIH5vry8POSDBGQ5nOmxodQQ/d2Sn0A51P0VzpsBoxac0Y9QRse34BvffPb2LVnNytpwoyy0btcDr7fRc+jLk8+uhlPqOYTJo9mh8PlZx4QZLE87r39Pnzqis/hJ1f/HE88sQGjEcofSR4yYZZ5qOd1NVSg6pSlCBKA1lU1CFfYMEbXPGFPEerjWFCSwGmNAdSxtjstJfjdXR14aEcCcZJB8d2HxewSSUww+j8U9pqB+Mfbfo1HH36G+imPeCzJQrOiccY0rD9lPYLUSdJaNitZscAqmdfyu0QZ9ZFYTfpLPREaBaIR1hZbgsDR4IZxgiyCjCuLlLvAjSB2sl47CUpnnmBV2xn/JoVp03tQbASGnRlmZ8lphJUeTMAsOrXip0z7Xtz4A6N59fqk+almduMeyVR0fNi2Yxee2LgJcKtxRo3CwMxAEKtqa1DOPdUBt5lEpTtlmBYN73cxMp3l8mFdWTkuP345qniOn5rR59RUhiQ2btmCT37uC2jq7kCKFSeWi2EiNQKrXTMPJ5hvCXi0okQ6blag9bKGepwehPm8Nzz+MN7ysSvw5f/9ATZu2orwiF4S5OXzsdIhzaxmNap0YdrpKzHjnOORnV2NeNCNLGWD3sSaIrM6KV5nuVJ4/Vw/5vkYVOUDeGJLBL/60whG+SRJXsvH+9kIQD2ZJMHIyAj/mnp7zUD89a9uQHd3L7WIlJAKyUF27Ma//dsX8OaL34Zvf/tKPPH4Zuzb24nxsSQZ0EOtGOLxYk+6XQYExbWiNayIJUWAafyfzZFFnAUTyyeRcZDJPHS/brphh4ZQEbg8TivAuMgwYiceYpjN9KSI6XQpbspEXVabUleESvG7TB+Tf5ompTRdp81tRzgapQ6jm8zaMNQ3jGv/7xeIEDyZeMIcG2RFOnHWdMz0huCIplDpCxogku8MiJNif/pi22gc8x1BrAtU4hPr1qGS+9wEqIfAK9Dl93cM421vfD9279vHIMICu5tSIB+Hz2/HRHgIqUQY1eVl8JEdHTk77rnjXrzvsg/gi1/4D2zfswsj0Rj87hIE3CGkyFZazg5k6DkE4PGXvg7Jej/6XDnESwk+lpGZpqFlkJNxBBNDOGdOGU6td8M7EcNgrw0/v3EQ+wayyLnJG/IgvJydOluamdmM/n5p26m319yzoteKPfH4k5MDGzT6l86JEbKaO4wr1uUNtVNTlfgwffo0LFw4H4sWLzALmNdPqyEANEyLQOG5CnYMsdAlOlweSHVRobBw1SBNduKPmhPi0shoukYb9Z0CCjUxZKmJ8vxdDMk95hq8dRF53H9w9NRBEMoOAlaM6eL9J+JRFPwaJpVF0BVEIZ7HHX/8E77zwx9jaHyUZF5AkIVzakUFPr56JaaT+XL2NPYRwP/x6Ha0qUmRF1wX8uKTi2diIQMKHyNViz2IXqb7mWQYv9i0GQMMbJIEc4z5I3etPLjmp9/C6uOXUkumkSJQysikaqIcHYqgpanbRN2PPP4U0vSWFoK2UKCmTKqnht6AeV7aUIslZ65CcF4VNrXvQr9e/l1VhQnmi2nYdlLHsiLo9cPlmVGcaO/F58+ajfmFLqSiAVx3+wC+84d2DMScKGgON9nbk2PkzESk+J9y77zzz8Sdt99fzLwptNcMxA9c/g7cdNMfGVEWJ7JrcIMoXPGIxuCZQaqTPSzcbYDwrPFBzWiOBjOCWp+VFSXcylFZVQZ/IESGoE7xOMlSQqiulZZookS3mZX0bdxy/DtLV5PhJt3oZMHaWYWf1ZBFx8xDjT03DQKhTOAtZMmGTH+cic8Q6B6rF237OvC1r34Tm3bthNVlg4fP08DfPn3iWqxmRQnFCFzScTvv8a+PbMRe6t402X2Jx46PLZmFkylPQhNMMwGTDZSilSDaG5vAnTt3YudEAmFqMPIPbC5WPI8Ln/+PK3DOOWeY9kmNJNIghD/dfT8efugJxBOSJHwI1iQtSqp3/9kY2MyfuRAL167Au/75gxh0T+AXD9yE3YNtmOBxWqOp4PCzxvr4rPQWdPOe2BBWBxP45AklOLmEengihce3ZvHlnzZhYy8rvV0SaoLeyo6QpwpjYyPMR42UymPx4tnYtbO5mGlTaK95oc40Bbl6HTQ8X0Pw04wWNZtLAYXmm4gpNS9WoNO/B01tc2qzSzP6Gx2OY+/udjz52GY88sCTePLRDXjm6S3Y39SGXTv2ooPR5VjvCFLhBPUSQU4F7nRqsju1lpiQn4qgtQyv7qIBIwZ6BIeJinXng59m07/F/4rfi/vMSx8JANGzlWmbGIuzkt2C+x98mEXAQuclg/EsXk9WP6d+Ov+OmoLV/oLLi2c6utFHL0DMUfTnMa88hGkeNyp4bzsZtpDJmOsHyZJVoRB6I2EM6H0u3KfoVu+O0XB8no0+Pu+vr/8drvvZb7BndwufRhWObM/KVspKXZnMosFfgtNOOgX/+vkv4sOf/STiAQt+9dAf8ci+TZiwZU06rHYCkGxspT5XY5EnPY4ZuT68ZbEfr59VgI+BUle3B9fc1IbH9saRkUsi61tZoZwEYsG81k13Z8Vm/mTo+pcun415c5aYPJsqm7JBD7fe8SvTM9HaqsnhQxgeGp0cyTJBMO1GjLVfUR+xIUzQNFDARR1Fpcf9WsLXzQLJaWi+JvIwitbrG7SyV8DpRGnAjyqxZXUFAqUh+DRJavYMTJ/ZiDJWgKpgGSrJPi41b1A/FhgBGl3DDNRwME2vFNuJtTXUvzi8Sswt114MaOwFjV1MwFVSgWTGig1Pb8OXv/x1M1pc2tOdymEtQfr5M87GzDgDiGyUlUD91dRz1IpX79qLW3v6MeqwIED39/aFjbhkWjVmE2yBNPUj6TlGtomyYoZZyFtiadzZ1ILd4UHEmYIEg90YM6OMz6hxlyNDwyA1E0BkQFY2PZCT27JgECtqalE3cx7e8cUvom7FUvRRV1/72B/x83tvwiAY6JGlCzYnnYgL+ZzfzE9x56J0yV04pyaC964MYb4rYlzytTeP4cc3taA/4YJFgaCCR+aTXumRJmMrqMyxwqkFQzj97Q3X4S1vfp8KccrskIy+OWht7Xuxe+8mDPePIDweQUd3D3r7e7B16zbzHuV8nsBggWtVhjyZxFJgMGPVwkKMhulWEtJ/TJ2PBU0fb2q0AgHG2cjSZUtzllZQyLs9CJIhG8sqsHD2LDQum4eK6VUoLSlFIBAgsNX2WFz/T0xtpgZQL0n76PGlZfkz3VwSPrrH8ZgGqxJw//5l3PfAg7wjM4rMPo2y8+MLF+OC6mmoSsRYURKIeQtmOkDE4cNdGlSwtQkT0rt0iW+YPxOXzWFAE42QiRiAKbxyeJh+G6JklzG3F82JNB44sA+PDwxhhLVU7hQu+m/1kvAcF9PsITjd3N3gd2NpYyOW8Dlr/SGsPP/1mPOutyLu8+Kulh344s+vJCNHEOfN1fTk8PiLbwiIWRhxO1GSHsbq0DguX+PCSn8E5XYvHtmcxSf/Zz+6wnYkWGEcSMJFNlclzqh2Ki2s3GkFaUXHgWt+8l186PJPFr9MkR1SIP41+8+vfwI//dmv0N87zowSG6prDSgv5SczQUP+1S2mjWXP52cOEItCixaJtLi1drSiUrXzURaQpQoU/2KOgI/hns8HK3Wl5pTMnFWHRQsWYsH8+Wic0YjysjIzuluPrakICmg0FUEzDDOJCXgJRB8j0FvvuA+f/fyXGADxPpQY7mQOZxL0X1h3Kqp6B+FnBJ2lKxz10BULWATYBgLu+wxYEiow5urpM2fgvbOnY14qQjbSwvF8CGeA19Qyx1nEWdoppqWVaf9Tcwse7hpBP89LMS1qz/QSDAyXUMe0njaXAV4NvQGDGitde/XiRVhx+WWwNtaigxX2gz/8Eja0NyNPsKpNVg33FgYwBbpwO/PXmUhiFl3yh4+vwul1EVSQg5OJWXjnJx7Ehg7ClunP58jyrJyMg0zju/om1JIgIGrpFlVg5dvnv/ApfO0r3+GvU2dHBIg//eXX8T/fvBrN+7tNRK1mj7raMrjsWbz9radg8cI6jPZ3o3VnK/YyWNjcmsCAWk0ERqVWvl0LzVjdsDBqVXcO89xMt0yQRbRIuelX409mIAJRbnpPCGh9P+3Uk0zkXltbh2XLl5k5z7mCBgxQByqiIku//vUXormzuzjxiZebxfL4+Ikn4FxvKSojMSTCdJulboy6LQSiFQkW5AHKga/fzqDCJNOCVbW1uHzuTCy3JOE0a/NQFjDSJblS0xLclCIaDhYLBtDJZ7pp8zYGCxOI6hG5sZrwGjPwurVrEGIkXVfux/LjV8O7eDEsjQ1AlQ9jTg/+47af4foH70eaFRQONzJJygUGiqCe0xzsEKWCfXwA59fZ8MFVlai3DqPUV4l///qj+MVdabKwhw8p9MXMs2qsrtJI0oaWuJMWjzOfNWxPA5Yvuvhc/OAHP0JdzSymcGrsiADxzgd+jv/88rexedPuIuWRIsoCHkQjcUyrd+ID71uPU4+fh0aWBOMgbOwfxk1PbsHT7cMspADG+xPIDCRRSFFD8ny9fb7AglZPCjFR9CmiWLKmqdZ8QqNLdS9mroqZD66Kbly/lRm8ZOlCrGMkPG/uPGxksPSH39/CQy3UZgWUsKKc2zAN71i8ENMmYighVWu4V4bAT/FcvTQoTvHUHXTgazc/iD5eM8VzZ4VKcIWu66QcSI3zODK4PcDSVRcmtV+Cmqtgw7gYJ1iKMbrSR/Y0YUtPD8oqanHGyadj5fFrUDa9HPUr56FQ6SNKhBAngwgHBgjwR/v34Ypvf8W8kNxZUkXm4kPyNz4gEzGOEkeS7D2Kub4cdWENTinLw5V34qEnBvG5r+/CYIbyiCydyRD+jIzpkIqY5Kd6m9w26kZqzRiD0OIKvYycl8zEzu0tysgpsyMCxA3b7senP/t5PP7wJsNsrK+ooACPTQyzNuZRWlrAFe8/BW88jhFnIIOwuww7RrO4e1sHtvenyT6VSFtCiMUKCI9GkJgII0+3auGmNzBZshTZI3EClShUd1dKPTBE4mT7kZfMkU5pxLUKjaBkxqtpR4MDBFgLAwsndxaoS/1M7+KgF+9ZtRwL+Hs9LxcbHYavJESZQG2Zd8BjcVHz5TBQ5cZ37nsYz4RzmOB5FdShn1y+BGcRoM7kGOuGBijQ2ZKV0wQybG6yqQMRSot0WQnSpRXwNsxA4/ylqJq/yLxkkgIahQCZjkFRXBPk+TyKYcPZBDrD4/jEVf+O7YPtsBD0FpuPzkEgZA3Opehmw6jOD6MmN4QLl0zDRYtDqEyNoKPTi498ZiNah5KUEWRQglZv5tdYS+URH1O9riZT7NYSBnlWJBmYaQK++uBL5AlGig37U2VHBIiyC0jvd976AEEQIKPZEKBrQ45gIuepoaI2RFd4ST3edK4b9mA1wgU/msM23Ld3AFtG8mjn9zG7n4B0MrOop5iNDs2+o9t0xa2I9hKcUQYU9DFWRs0+j1b070ciwgwVgKgtFSDp04wGUmHQnWl4lYsMZ6NIclLXVfPaFyyYhzfMakRFfAIOuq8co2vNU1HA7M+64GdEGqXm669247rtW3BzxxjUEebhdT+5ZgXeVFMKT4aRLCuJ3gvoZHDlKQ8iXzMd4ww8vNSSjauXw1lfi2yQACcTae0ejapW25+WQyb5YzQeQ9/YCAYYTXeO9eKx5o14bP9GxBjJ5JiebE5MqXyUFEmiJDeGackunDnNg7cun445gRhSkTC+c1ULbroniqjGRlI/ajCSWgkV4PBk41SokmisBNYK09ieyY5y04h0ig4ecN/9t+KMUy/UQVNiRwyIl33grbjpt7eSmaTcin2oerFiji5CHWU+Mk8JM+ji15XgIx86AaX0aGkCo3k8g7v3DeHu7gzabVUMEsgw6l7MUUzzfI1R9mdccNP9aBJkntrGb3dhYeMs1DpDyBGI432DiAyNorVpPyP6AYyOjRmWIpEWe1/o3oK8tzdnwbLyMly8ZBGWMTKtpObKhIfgo4DXPF83QeLMOhjJe8hqLoTJfHd3tuCnew5ggNfhJfC25ctx/rw51GQOhBgoldTPgLe6AsGqUjgZfVu4wU/wsLALdO8aOpwgKNSjNJFJoXtoAC293Wge6kHXyCB6hvSW+x6EI+NEOtmZR+vl5AWPG3IAsHlMxbIkxzEtO4yluQF8dN08nFihJpgUbnmwHT+8vhs94wUkclrgVJ0AWnyKjKgGUbMUCoFBnWwpBMjgAiLTQ1ZNp+W+1dgF/Oa31+DSt07dyyKPGBD/9fMfxc9+8kuMjcWKzSusZhogoUnx6pnRPjsLOuBM4cIzG/AvH5iF+mDUzMNtjdpxe1sGd7Qk0euqR9QVREJLZ7j4KHQxdiEqxZrLAvFRvNupn2ZW1ODCk87CeStPhi/NjB0LY6i7G7HxCfR196C9qxP7OluxmYzWeaAdAV5qXnkpLjnlZCwpK4c3EoGDhe+IRQk+Ap7uS/GQli4ZJx+nfaV0cTbsjo/hm088hhG5N4Lx3eedj8svfRcqGmcgUFkGf2UFki4WPrWlef0ZGds0tYjReL0+ypPd7S3YdmAvWoZ70c3vnQT/UIISRBG82kMpZcTYeuWaRhkpCs/QZefVNspNrGUN92E+IvjI6hk4v8aBmugAsrYAbnlyED+9YS+aujKIZTVllGlg1Ve7q/yx3slntIpcfN5LvciNEUy+EOHGgItwUVvs17/xeXz+375uynIq7IgB8Rv/8zn84PvXoL9/TC0oxkUWgaiVHxRIkCdJb1lW8xIecN7JNfjcxxaiwqvl2HLoY23+Q9M4ru+wo89dhyRBq9eaUSTyqVgY8jc0DakqxNN021nMCFXiikvfh1OXrkadLUTAE7z0RhoYoWH3sXgSfX39SEWjGOvrQ6Xfi0Xz5tEd8yB1LaaoP1MxatEYCrEIg6txbhPIxfNm62jrZqCSxr/95jdkqeIp777oEnz5K19D1fQGM8Mvx2fJu52Ik1m0mmM4HUNrD7Xv3l3Y2bQPPWODiJLZh+MRTKSpcwlaRcAaQ5kjZBS1ynlKJxZ70gkS5p/GKZrxc2pzpUQJ5OKYTtf8kZPmYx019xwn0x3rp3vNo62tgJvv3I/f35NgxEwhRDYNJzU/JwcnWZn8yjLg3Zgv6rvXglYalaSJb5rdKKF9+Qffiauvem0LuD/XjhgQr/vFd/FfX/8WM6VXz8UHZU23auYZ+YFuT80mBZva8GAac73M9vPW1+JfLp+P+hAz1ZLG/rQDN/S5cfOBKCbcNUiS6QQ8uXBbwMdzWUjpDDPXAUea9T6aRBkDiw+//d141/qL+fA5ZAhGH0V+RuE176vAw83CtLBQrBoLyYLWAFMTnvO71JSaYcQ6AoASaKEWlaYTO47SjS458zSMqH+Zp5y1/mT8+Oofo4GAlufU4I1+suaDOzfivg1PoYmsPBgZMQNwveWUDgRdmCBPmQZWgY0fvKMGKih9YiPNN8mrT18hrm6ig5RGShw1PdkItoAlaxqwa9IDOH1RNU6cE8Js9KHBlWCllEuux+Z9WfzPTx7Eky2SJTa6X143p2F16kzkM/KSaiUjPEkSWmtSjKhuUI03XY0bb7gJNdVT04RzxF4K2dvfhocfehzDw9RnAqKaW1QX+bcyWwNS5aIFUnUNai7SgbYJRCbimL+oAr6gHUGvBTN8OVT4bNjf3U8A+wi6MlOYGUalylQ4yY68doqA1Asb1ca4c+8ebNi/DXFnDu1jA9g/3kN40N1RdGnF2J74EAtby4Zo0IAWRXIRCsx9m9qTWCXsPrKPl/tcxIaDkkDzhclRZI2sz40Hnn4SXT3d5ln8VWWYd9JxaMlGcNMT9+Jb112FH//h17hnzyYciI5gxJGlW3dggpeOZGKIMhrOuKQXBQUCj9lilv1gBTNtovzbogBDrGgAqI034nczCpb49TLwyyY1lM6BBCtz0+gAtrKCeEMVKPOWkRW1AmwENRUFvPH8E6F5Lzt3D/PZNaWWFY96VaPmU8zzLCuXxgWoz15Sgzdh+ehtDXF8+Uvf1I4psSPGiLKVqxebd72JbLTMGXPfsIr6hs24Qq2EwBpoYzRo53e9KMfjzOPM9SFc8Z4laKzMotRrZwBTwH1dwG17I2jOlWCMriQf8BtGLJAdNYjBjPIm22p96wB9fiHJTOd95I5cbq1ByLiR7rvM50eJL4hpNbUIOX2oDJWh3B/iVmq6EkuCQVaAEFy8phZFElO4CUBCFkE3o3hG5P/+xf/Ar350ralECLow97R1GPETREE3/AQ1+Q4RB5/NqSiXSJLrV+mqpMlMRqvIVDTmN26qjWpu4j6168HOcw0biqWLQLSwUmhYtt3ihJvgKhTi3KuFlsbgsSUwPZPG+ooQzl5aizklDAgTo6xKLmTSpdi6bwI33rEbT+0Yx0AkX9SdvDRhyFuREalhtUJZsZ+ecZI3iPHRqZs2cESBuGbtCmzdut3ks9vNWs7qfxCI0oxOL5mNGtFpRDNdQ54Z6ykK9HPX+vBPb5mB42ZXmMGx4ykbbu+N4BdtY9iXLUcqON2MZskzUrS49NYmgjzN6xIo5DCjC8W66mc2reYOgYDlntSgC7lmlgQLX/NlLKTjAjfpeBfdombyaTXVYDBEYIZQHQghQH1WXV5JoLnxxF33485rf22uUWD4X7l+FXJzq5Ek+BQ4xVihNPAU1MTyAvR3ZrMIbPpUhgiUZGVKXxPRi/BIS0KGfGXxHOkWcrnRiryXtcA81HwXAdHlQYJ6lmIWVlZetxrCJyhDYkksqvRgXaMP6xtsmOejXMlO0J3b0TNYwN1PjuCOR4exeW8YJFVDthZ6GE28Ul+9FqQqAtGP/7v+e7j4wqlZhOmIvq/57j/data3Nq6YmVxcSKm4notZqJPuVDPVktlitKbROnlmmIbD93QlMT4Ywxy/AzPLM2TKFMorWbB0a/3UQIMJJzLJJAubxzPn8sxE3cMMduD5ylDKKdNkw+CR7pyinQDX+n9ZIk6aTe9NyWp9HjcrBEko66VrZ+WIO7OMlJMYyoTRExtmdNuHpv5ebG07gC179mB0cBjhjh6CQ2CiOphWDXt9OaPerEmHXt6twIMJ4THMCLo9RdAOuWAxm9DG/UqvfjOMp78FTkoHA0ADQu7nczh5jAYMy30Lnw5WEs2b0dhNJ9ldq9jmEhQfZPg83fZY1oEDAxMY5j69ONxtT8JrnUCpO41l86dj/sxy816VyOgIKAt5X7Gwg9cm5E2wwscic69fvxarV2plt9duRxSI27Y/jU2bxIjFIVsOujsxl9ykhvtrFp9ZP9sjcqKfoOuRkrMTLE4WZXwogzNWADPnuBEFAxgK+LLKmWiO+tCVcrEG81xeU+VaXG2LBalPXlvdeirYvLQpQWdMHayKOhVxk4rkK/g/AUow6lQWSNZKEFN35akJ82QZifmMhD7dV5YAyBAJalqZ6Ohn9FoETKEsAEt1Cc/h5SkPDH6YBjPI9SAL6js/zVqF/N1MdzAJ589kccOCBwHKfZrEb6G3sMRS8Ivh+d3NZ7U5WZFNRVNoxAPpzhUHa361lVG72gnj9Alxmx9dE1l0DjM6j0VNX305tbbPnkYFK/fyJTMxY0YNvUoBA6MRkgGjdqZPm/JFunvhwpk484wLlLDXbMyJI2c1tbVGKMs0+sUMplVB0MxMPWaoo+CinpMG4z4nAxALM42K/ORpwJX/shjHnVKJcXsCSWqWCKZhZ7MN/YNZJGMJEzGr98Soj8mCNf/pYtpokxCcNJaGJnmppZh3KRS0TgO1mKZ2atIXXZ8ZPPGczbhwForY1Ey6IljT/G6hRjX0JKFPSeAS1xH4Do0c4mcx6GD2y+0K6KxoGrxlWJpZYnG7yGxaPNMOn9WFAHWyL8rgJ1JACTXxzEIIp9cvxSfOfye+8I6PYU31HGCIB0QSZnS6W7MCyeRmDo3aH9W/bZak070ZbPCeI6zhO7IV+H1vCX64PYdf7ctgb5IBjpsVlLl55vo1ePMFZ6Bx2jSkTWu5yqmo51U+UzmR6ohqxFv+eD0+8IFPIDweJhuKgZRJDqMRVYhFBaUxiHSRFGsFF+NUuqa3rK/FZy6cjoVLnNRdY+glGMatM3DPhjgebsqjyxdAJ5k0Rbdj1evCBHIBnNdUw7k6EGT60Fxn6TDjAiX2RXEGnpOujwWmFjzpMEmCZ1Gs/WQHkRSZSKuxagCDK029O5FDalsrYmZgABlyVi2qX7cW/bYkXRqfR4upk701+NVF7SWm1tLNYmsN8TIulgLNzufyWXhtrTEZy2BaRTXWrVyD4xevxJy6GagNlFK6ENh8oNFwGDc8dCtufOAODFM2xKyshOqjdvKZJEsIQOldhxrQCaY0K0DB4eUO+h2ypz/ah1mFfqzxJXDh0nlYUDMXv7vxSVz723YMk3VTTJNhWo3cZsFotd9/+fTH8MV/n5rhYEcUiLLq2goMDoyYWkrnAae6+ljeWsLDQYapCYUwElEAQQ3lS+Edb5mOy95UhVn+ceQT40i7qtGCRly7OYJHDjDzgzNYAIxMGdjENOuOwCl2SvH6cskC4ySetFdAFKnp7naCUDPl9Ld+1SQo0wdtftf3IlsXTUFT8S8zTo9AdPFCenu9Pclzmvow8vQuljhvVhlAxQXrMGxl8BAi25IxzXRaRulq85MqlGfQknEKiLIJgpC3KmMUvrhhNs44/kSsW7wKdcEq8w4XwgeFBPFF1+8PELR8Br3RYIJpemzvZvz49z/H9r4DsPO+Q+F+siGRV1pKMLPypBWqSZIwqhYba5oe89lBtx1KJlAxMoaKSAyDO1ox2MHE8Nqa1ZhgRmVYsbWsoPLn4jefj19d/wfz/FNhRxyIi5fOxJ7d7eZvuU2PRwsI8aFTCRYKBbaYkSyycKYXb3nDTJx/ZgVC/j5kGHmGc360TVTj+mcG8UTEg4lANaLUZ2btRblFZqJpDjEaUFflJ38/CEbDZtp4nDKBss+4Lpl+O5gx6l04CLpnrbjDAJWFqDLVzEIXWdGiwbstgxh9bDusMQI24EH9G09GX4gQCGpwAoGWzCJEt+vl8Vp0U81B0nE1ZZU4bulKrFuxBo3VdSi3BuHhcYyVaJIq5OY4gUeW1Hv3xsN6/x7ZciYj9hI/EvmM6Ra89fG7cePDt2OcFD3hpJ7OJMmEPqKXV1KQpOTzgc18cHoZX4bsG84gyXSP7zyADCu/V0scs17GGbDkmFGlpSGsWr0C73vfZTjrrHNQVVlvUjUVdsSBeNoZa/HEY5uoDYv6rTh6mkTCiNepRmLWwtPWVeJDb23ESfNcLLhRUP2h01KGp0e9+NWmcbRmAwhTA6VdGQKUrKP+NSszXYJmUoOZgIDsY2OGFjP/WbAJe4b9bAyaDrKeXLWMB8kJF0tOm1Crz6KZzBOruOy8poZvkNmyhHzrEKKP7YRllNRFup9x4amI1wToMik7yEB1/lLUh8pQ6vKivqwGi+fMx+K58/l3FYJWrwGc0qkKYyVYM2TPsdFR9PYOorN7DM3tA9i5ax/2H2jB+Ng4LnrjebjkjWdh8YIGeANkMEsaG1u247r7focn23ZgzEowUq+q4Z7czjzOUg7ZEOLDOwbJpV1hRPf1ID4Qpev1QQsf5DIxsjTgc/swZ+ZcvPHCN+BLX/oK9uzbgkULVpnnnyo74kD88Effhv/72c10bT4SlxVe4seslROLoa4MOOeUerznzbMwt8YCNwV0ouDE7lEr7m5P477OHNpQyRrvZ23PUt4RhGbyD8GsZgfqGJIZCpm0YUOHXGcsjVlVNVg6Y7YZaKJxibFEHBGxCzNevRtxVoIUzzEd/AQyi80wZxG4/M4cI2wNJgV2dUkquDAz31jYdo1q6RxBYsNe5IfGeJMCVp1/OhqWLUYJ711ZUYaZ1bWY0zAD9fwscYXgIOvp+eU4Na0sTfyGR2Lo7upBS0sPOtsH0dbRhbb2TnT3D9G18hmpH21WNUjakIpNYOn8mXjTG07EKacuxbQZZcgyL4Yyo7j7iQdx59MPomloEGPmmUiGrHgOascc0xff34Vk+zDoTkytJCiMJ9EYoHnzZmL9ySfh9a8/F2+84FIV2SGxIw7E7175efzHv30XuXSJEekeZxxWRxzzZuXxngtn4ozVHoSY1zank5nowhbm1237xvH0iAOD9krENRhUrpNMo4ZuuUpNDFczTIEBkIjNKtejAqbgXzVtNt53zsVYyRpuJzPlGA2quyqSjCOcphujrhxNEvCUBslsBtEUAaq+X7rf8WgYvUMDGJ8Ik3kZ4dLFJnhOOs+IVL052ZgBoqcQAMYyGNmyB6meLjJaAee9/jx8+T+/gaqqOgRDQUKNgGBF0NxhwVqoDo9l0dbSiba2TjTv70Vn5xj6+sSCw4hG1LrsYMTqNQ3MalKyqAFbbUIEooS1hb7C7y9g2bIGnPeGtTj9rOXU3GRHorqlrw33bN2Ih7ZvRU9vL3LxBIZbWpHo6UV2PGaagxTE5SgrNHUjSC177rln49zXn4n3vOsKFdUhtSMOxF9efyU+/P7PEixlZAJqEksYa9dW4n3vmouT52ZR6s+hdySBUWclnuxP4Y79Q9iX9WKQ2ilt0XBYRsHSfHQ1fBoWkNys0McCIsiCXj/sqRyc8SzOXn0S3nnmRZhdXY9Ks5hlcakSLQ2iTJAWVD9FcbQyI0QiJS0wEpxixVSa7BmPmyFnaQIzkYsjmkggns4xMKJmnehHeHQMifEcEkzzE7fdjY7dO8jQecxpnIWmvc08hoGsl6xKn5siaw/2xbFjy25s2bYdra09GB6JIBnnfVOaXUiAqRmJOSPA5chWalQ2TKwASTKCCTfRPM1CBtNgEJs1DY83h7PPWoX3vP/NmFbvR5KVZigZxa0PPYAf/+BK9O8/gGQ0Ria2Iqc5LmooZxZKF5166jq87e0X48Mf/Ky57uGwIw5EmYuZ4UU51QtFvzWMT3ziDFx8YS2C6XYjyJOVS/DrjW24o2UUHWTFWCCIvFaOVKGwLKT3zHhOfVWvSI7RndMNPwsyR/c2q6QWF592Hi489TxUeUvo4lmIPDc2zkfP5FHitxk2kJmJfSxoXVqLW8olS7Brn65vDjOfhCqzLkW3W2zwJlSpFXXvDGtDeCiMb3zp67jlpl+SKTWDxW5e9dE3lEdz9xAeefIxbHhiO49LUf/RCWbUqF+c+6xmLDWqU8ma86AeJ/2tysW/sryvemb0xlZSGfeQLaWBdYZV7MiKxEqSSg+jrMKKT37yvVh7wmLccOtN+Om1P0F3czP0zhQ9B3HL48WuBcybMxOXvedSfO5zUzfO8OXaUQHE8kAI8aj0VZoZmcX7PrgaF13cgNKgE12jGfzi8RZsHLdhwK91XIQ8Vl07c5AZrnY/m9wTtaOYUEUUoDaMDg4imLJjSeVMfOiCd+L8E87haTYNhMaBA+P40pf/F48+8jQqQzWoKqtGbVU1/EE3SstDaGiYjrq6GvOqs7raEtRUqXANCcGluZb8X+wh4hU7ZUgo6h52BXnY5M85Ju9rX/0f/Pc3vgIHQZpkRH3ppVdg445uDE0wEPP74XeUwa2pEgSgSkHNSzZGz3o9h+bTZLiZFxxJr/HCWWpQ7TON5JIdWgbEROxpAySNCtPyLuJRB2unVe+vLowR3GOIRHvQ29fMyhWDi/mTTqRNb4rGTOhVI2vXriNgP4zzLnwXzwYry2bMmbba/H047IgDcWCwBxddeAk2PLOFBZBhxFbAm9++BG++bBV2dg3i948y4vM1oB8BZPwlemkmC36UCdeAehYKGVLvTCYyzfVsdNEuuuRQ3ob5ZdPxhQ98Gmvrl8BGsKQn0ti0pRXf+u5PGXkOw+4IIJu0wMsoUQNwswR4TpPT1cvB72n6zpyCFvV989p1tVVYOG8+qioqGAe5UFYaQm1tLcrLQgyy7AiWUod6GFS5yV4FB6776c/xnSv/CzlqRwvTv3Dpetg8jXT1xQWj1NHtYAXSOohCuQZgmJ4gIlldfGJdpUWz/9Qro2WRtZ5Qnoyp11WodqgPxPxO96zNKYAWNC88Co87h7GxbnR3NyGZHmPepniGhsexlvB0n8eLhun1+Od/+iDe//HD54ZfzI44EPd3bMdnP/1F3PaHu41/tbjyWH/2dCw6eQbubx/BkKscCRejYhaWVi4V0GzMeMWyKsycFpIUQ/Ax1EPgoYtrcJfhlAXH4Yp3fQgeFnqZzY/YcBh33/YUfvzjG8kyfgYjdHoOLUzkopuiQGchpxxZpKivNEHdLCTF9KlnR5Oz9LcGEej1aSxNs0/9wsalipnp21O5cbJknsCsQF1VFeKRIWzf8hAS8VGe40bjjNXUh3PodUv4yUpA/ZnnVlz7mrgUCMVsuhlNOrW45riKyMCSv5P2zAGseBp/SFAWlzyWi1baogT+GCvRCKXAMAYHenle1gwuyjB9sCTNa8zmzZ2Bc886A9/41jXmXkfajjgQewZa8Y3/+RZ+9L2fmZfhWCiyG+YEUbOkHj0l1eghyLQ2Igp0Pyx0t9UDR56gzDuQJHXk1WuQTcBJfRZiELGytgFvOfkSnHv86+AR0zAaPNDUh5tvuhcP3fsUmc9BtrOiJFRFEFkQj6XIFB6juLJ2FrY2ab5JdmLJG3Yy75omOPXKC3UTap9MgwA0aNZGP5clCBiCcCezlGmx5SbQ370NEbISHSCWzF/PSjADBbpkG6NfjQ7Pk73UoC2Fl+V5ZiSS+Sbjdehvi0WkAEosqOiY/5nmHpcBoZpcrHTTNrriiUgXtw6MjLTyWgxGNJpb4TmvkbemUDu9HKeffiIuueQiXPj6ohs+GkxV64haffUsLF680DBSgRouH7djuIdR51iAMtAHv12LB6XNSglOCRpNJUhS3GSDcNnKGRnb4EjmUU0wnDtvKf71Te/BJavPQYVm8aXyeOzxvfjvK6/H7+95DMNpCw/3wOYOIJ6kK2agYncR1Cxs0xxCINgYOMiNO5gWTSul44QWqrRMdkpbNQiC99LsNznsAsGQt/gYGLhZOTQYl0IRJWRbvUaXnza18wlW1IlaR9xGN0qdm81p/gc3MrAAqRHlYi5NQeABPEVgoz5kgCLtKIAKj6a5h6zo4HF2K5k7F4XPm2GlGsTwcBN6undgcPAAj9e79uiKLer4i1L7WnHm607EP332o7j+2pux7sTTlf1HjR1xRpT9/pbr8fa3Xc4M1rp8LAS6udr5M5CZXoJcjROuMhajM8PCphvMegmDMrqzUuoeRqOFmJmf8dZTT8OlJ5+DheWNcGXdSEct+MUt9+Pa392BgQnqSQIwRyAS1mRP9SnLnQlI5BqC0NyWxKElN/S3TM5Qf5vGbH2fPE7fi7/rHw2x8prej7yWGVYUI8CQGdUU1d3xBEZH95trVVcuQP20tUjlfZQabl5HPKxRLQK5VGjxU4wnyIt1i9E6z6b7z9P96uWTkggu4lGr5iaS40gmxzDU30agMzDJThC4GVYCNf/oVb8FrFo9G2+6+Hz8f5+5Uik+Ku2oAKLMy5qf01Ar06/A3BdThVji3hSswRzs9SUIMpL1+CpZ6F6kElkE3B666yg+8s534ZzVp2KatwpOut2h9jSu/M51uPORx+GsqMQEmStOHeh1B9XaARullHpZRD4Cg5p89J+DLk5A5P9/NgPCSfAd/Dz4u75rKJgr4yKwHfxebFRXQ7P0mt0yhv7+DRga3mP6xr3eOixccjYmkmRVu5eYoxOW29TzKhwSCM3GSiLXb9oHtQovf9XPBGI2m+Q9U3BTS8ei6u7bSw2q+ToRo081UuhgCv0BG9592dvw8Y9/nEHWOrPvaLWjBojL5s7E/uYOZqSGcYpP6H2ly5zMVK1RzAymLAICZMjqUpSXlmFmXT2u/Np/Y37tAuolL7RyWm9nAp+54t8xPhQjFGyIMPqFh+7SxsiaQLcJJHxibdJihpXIGvyR+8hFQpe+FT+4t/i3tmLxWp/3m1jUndWoGx0jOBNE1K9iRpt1HONj29E/uBMJRrF5axAr11yIWJru3FZcaFRNN2LT4kXldnk+/xIb6jXC6hNWX7bYUG7dzhs6qfU6W3dhcKQNwaCVgdcwf2OO8f6ajivPfuZZp+ET//xxnHfOJUrqUW9HHIgjgz2IjQ/hkUcewVVX/xRtHT3MWL29tICkykClL0GuBmMbd5iJ4NxH6WWJWVBXXYbljJDf/JbLzOiSH1/7W4wOk30YOVvNkC5qPHUD5qjp6I4130ST1MVsgpaZksmNGcHv2nmQKfV70f78p9IxacVMkxNVu50iebpNHUigI6eFlak1EabbPIDOrk2IJcJMtx9Llp1HBg5Sl+oBisAz73gx19amykCA80+z1ozeFuqkHnSot2UC4fAQRgdbkIj2mjbXNDWizUrdyd9djIbnzpuDSy99Mz7zqa8qgcZ6Bveivmrh5Lej0444EFv3bUWwrEotMCgvr8fNt/8E23fvxKMPb8Jo7zgS41HERtKmKy0p12Rn4ejdEmQgRZuWmBVeux+JDH+jW/RX1SBYMYcuzA8vAeiHj5j1wOMKmQU1kzxVy/NqJLTYsAhCgslkg4Ag12iSZkx/F+FJI9IO/m2O4Xe9wyVtjyPj0HR57icbWnN+A2YHYgzAOtHe+hSi0VEyoB/zFpwBp7eWwYmabKQHdU+ZNGvxL4EbAjbduYW8rhmCqVSE0fAQgTjAgHwQbrsWkUpBb78vKylFqDSItetW4rL3vQWvP/sdxQv9HdlR45pfzAYGunD/nXegaecBtLZ1one4H1393azhfabvtJDWKG4NwndQX1KckyFM4JH3EqUavRxEqacEAYLQSVeoF+VkNeJZzToOabqiGyz6XIKqoPWi1YvBbwoUjHsUQxWjVqLDAEzHHtzkjjXKJaOeHq3dQApX26SdAZFdUXBhEG2tTyIa7mRlc2L6jDUoLZlPTVeGLO+nNkHTLGjaRulWxfgaVqbhQ5YkI/sI3Xs/A55upBMR455ttjh/lysGr1WC445bg3e++224VAHfX7HB4R5UVUzd+MGptqMaiAetuXUz5sxajf6Bbtx+5+9woKXFvBdOa1u3Hmgz63Wri03kotHSObrggok+qQfp/jQNy2n3MZL0sdBd8HpCCIYq4HR4yKqaaqq+LgcDGgZIBIdGg5uuNSJEGDVte6JsmrLLTCDiVa2meYXRMq+v9WvAKBlkLxPxcp9dv1u0ZPMmatZt/C2FMkbO02vWEdANSNGFaw0cLeeRzUb5O92wAJ2PIp0cxcTEAMJjvYjHR5lOVjIyoLSizU4p4FA0vJJu+GJc8dEvKGl/1/Z3AcS/Zg8+eidamlvQ092Hjs4u7NixA01NzYjHEkVWk7sjmLRwe14DIDQ0h+7QTnZ0Of3c7yIY3Qj4SuAiOF3+CgYU1G4UiGqTNqKPYBIIpfiKblT92ZObXDM3KwMlMWfBOkagJ5mpPIyuVxGwzRpH3+AODPU/w3MSCIVmYHbDekreGUhpRI2d+k+N6Hn1C8fIgJQjsSGMj1M7RwYI0Alek8BjuK/gRQ3r9dOrcOFFr8cVH/s0Zs5YwJv9/dvfNRBlcjkjdF0L5xY76P9w243Yu3c39uzZjY0bN5mxfdmMwKL1BgkOfup73vRGiC0V0BCwBKtdS4nYvfAHGJWXV8KjxdAJppTWoXYIbJQA9JxiXA3H0rW0KRjihciMYWI3wUxVZE6mZZSeL0xgdGw/+nueIvslGURVYd6sUyhUa+S4KRHEcOpRoQYm842MdCEy3ltsD2QkbBrAkUE6nUIo6MeFF56Dt7ztzXjDeX9/OvBv2d8tEPuHWhGnZgr4KlHJIOeg7W/dRgbJYW5jEZi33vVL7N3dhIcefgzPPLUFkYgWTDI/ka30ZgE9voURp4+Rp8e8cUq9N5p66XD6UFZRh7LyWrIj9RyBpUnqeo2bmlqyPFRv29JIDF0ll9fSbWkC3AmXzQ8Hj7NaUojGO9Hc8gij9jCDDD8WzCMQ8xVMAPWeMw0tgDk2PoChgU6kEsNkxqSJghWsaCF5Ueyq1fNxxRUfxQXnXYKKshdqvfaerWisXzn57e/P/i6BOEK3VV7y6oT3H+/4FR566GHccfvdGBmOEhxZMmTarEIm5WeEJlmOPpqbdCH/trgJTLpzd5CutYrMVAG3K8D9dPd04053gFpRA1djBDZBTJerNWxN0EK3msoOoqn5EaTjA3AT8IsXnQK3sxKx+DDGJ8joIwOYiI7wfgpA9HJM6kRG49Kq5eUevPmSC/GjK39FsG0j2FaY5/hHs7971/xKTSAOMwiYNX0V2tqbcPtdN2PTpk105c0IR8IMEGIYH40glaIm0yBTglFr8giM6vkQKyqwcToDdOEl8PmCcBKUGojrcFoYjGtKKIOQLNk2o3M19CqC9q5NiEa6eKwbM2cuoeL0syLQDUe6kcrEeE0xn5iYetBWQGVVOU48eS3e/vZLsGrVir9rtns59v8cEP+W/fGO66kp27Bz+y5G5f0YHh7GwMAgxsYiZM6iJhQYTSO7Aac2BiR0ty66bI9Xb+lXdF4Gt6OEAQaZVO2UDFj6h/ahv+8AmRMIBMpN8BRX2yKjbEXNao/UNNOSkA8rVi3GG990AYORLxgJUlM5da+ROFrtGBD/woZHegg2oKKiHjff8nMcaG5Fb+8AOjq60NrWahaNSiTV5qcxjAxaSGT5LFlSPSqMnNVDYneVULtWwMnAR+8o1GDfsXAXRkZ7kE3HeZiiaTVoaxFRaUENJcti6bKleP15Z+IrX/5uMTH/D9kxIP6FDQ/1mFYbWeVfNADfSsbUApxdXb3Yt28vmvbvQWfnIJIxqkudZPoFtTkINo0VtBOExWV/s7mYCUo02sZJ951OEcEazkUwT5tWg7PPOQMXvOE8nH/e2829XswGWEmqnxOY/SPZMSC+Brv93mvRR7Zs2teOzRu3Y/u2HWYdbr3SLZsVOIttkHLHGQZEgaAH0ViUkbTaILXgFHDaaSfiox+5HCtWLMe8uX970npXf6v5nD6Fb3w6WuwYEKfYfvWba/D4Y4/hwQcfRntbj+mhESjNuuBWBjP0yOqpWbR4Ht773vfgk1d8HvtbNzMK96Kh/m8PTFCbqexo7qp7tXYMiIfAenr2on4SVFd+7z+xefM2PPLIUxgaijBQ8eKCC87Fddf+xvx+zIp2DIhTZEPUlpHwEGbPeWE7X3PLZjRMX4I77vgjqqqrUVNTSR2aZVxTwLzGf8x2wVdqx4A4hdbb14pEYgyzZ71wPrDeXZ1IJvgXBSNyqCivmdLVtP7e7RgQj9lRYaqex+yYHXE7BsRjdhQY8P8DlgsC/+t/etAAAAAASUVORK5CYII=;labelBorderColor=#000000;arcSize=20;imageHeight=24;" vertex="1" parent="si_sN-9SS_ps1o2H-Q9L-1">
          <mxGeometry x="50" y="170" width="190" height="60" as="geometry" />
        </mxCell>
        <mxCell id="HwLwO4qjRw8fgx_lzEza-2" value="Search" style="strokeWidth=1;shadow=0;dashed=0;align=center;html=1;shape=mxgraph.mockup.forms.searchBox;strokeColor=#999999;mainText=;strokeColor2=#008cff;fontColor=#666666;fontSize=17;align=left;spacingLeft=3;rounded=0;labelBackgroundColor=none;comic=1;" vertex="1" parent="si_sN-9SS_ps1o2H-Q9L-1">
          <mxGeometry x="800" y="170" width="220" height="30" as="geometry" />
        </mxCell>
        <mxCell id="HwLwO4qjRw8fgx_lzEza-7" value="" style="whiteSpace=wrap;html=1;rounded=0;shadow=0;labelBackgroundColor=none;strokeWidth=1;fillColor=none;fontFamily=Verdana;fontSize=12;align=center;comic=1;" vertex="1" parent="si_sN-9SS_ps1o2H-Q9L-1">
          <mxGeometry x="50" y="300" width="200" height="400" as="geometry" />
        </mxCell>
        <mxCell id="HwLwO4qjRw8fgx_lzEza-8" value="" style="line;strokeWidth=1;html=1;rounded=0;shadow=0;labelBackgroundColor=none;fillColor=none;fontFamily=Verdana;fontSize=14;fontColor=#000000;align=center;comic=1;" vertex="1" parent="si_sN-9SS_ps1o2H-Q9L-1">
          <mxGeometry x="40" y="190" width="990" height="100" as="geometry" />
        </mxCell>
        <mxCell id="HwLwO4qjRw8fgx_lzEza-9" value="" style="whiteSpace=wrap;html=1;rounded=0;shadow=0;labelBackgroundColor=none;strokeWidth=1;fillColor=none;fontFamily=Verdana;fontSize=12;align=center;comic=1;" vertex="1" parent="si_sN-9SS_ps1o2H-Q9L-1">
          <mxGeometry x="50" y="250" width="970" height="50" as="geometry" />
        </mxCell>
        <mxCell id="HwLwO4qjRw8fgx_lzEza-10" value="Section 1" style="text;html=1;points=[];align=left;verticalAlign=top;spacingTop=-4;fontSize=14;fontFamily=Verdana" vertex="1" parent="si_sN-9SS_ps1o2H-Q9L-1">
          <mxGeometry x="350" y="266" width="60" height="20" as="geometry" />
        </mxCell>
        <mxCell id="HwLwO4qjRw8fgx_lzEza-11" value="Section 2" style="text;html=1;points=[];align=left;verticalAlign=top;spacingTop=-4;fontSize=14;fontFamily=Verdana" vertex="1" parent="si_sN-9SS_ps1o2H-Q9L-1">
          <mxGeometry x="497" y="266" width="60" height="20" as="geometry" />
        </mxCell>
        <mxCell id="HwLwO4qjRw8fgx_lzEza-12" value="Section 3" style="text;html=1;points=[];align=left;verticalAlign=top;spacingTop=-4;fontSize=14;fontFamily=Verdana" vertex="1" parent="si_sN-9SS_ps1o2H-Q9L-1">
          <mxGeometry x="643" y="266" width="60" height="20" as="geometry" />
        </mxCell>
        <mxCell id="HwLwO4qjRw8fgx_lzEza-13" value="Section 4" style="text;html=1;points=[];align=left;verticalAlign=top;spacingTop=-4;fontSize=14;fontFamily=Verdana" vertex="1" parent="si_sN-9SS_ps1o2H-Q9L-1">
          <mxGeometry x="790" y="266" width="60" height="20" as="geometry" />
        </mxCell>
        <mxCell id="HwLwO4qjRw8fgx_lzEza-18" value="Section 1" style="text;html=1;points=[];align=left;verticalAlign=top;spacingTop=-4;fontSize=14;fontFamily=Verdana" vertex="1" parent="si_sN-9SS_ps1o2H-Q9L-1">
          <mxGeometry x="60" y="320" width="170" height="20" as="geometry" />
        </mxCell>
        <mxCell id="HwLwO4qjRw8fgx_lzEza-19" value="Section 2" style="text;html=1;points=[];align=left;verticalAlign=top;spacingTop=-4;fontSize=14;fontFamily=Verdana" vertex="1" parent="si_sN-9SS_ps1o2H-Q9L-1">
          <mxGeometry x="60" y="356" width="170" height="20" as="geometry" />
        </mxCell>
        <mxCell id="HwLwO4qjRw8fgx_lzEza-20" value="Section 3" style="text;html=1;points=[];align=left;verticalAlign=top;spacingTop=-4;fontSize=14;fontFamily=Verdana" vertex="1" parent="si_sN-9SS_ps1o2H-Q9L-1">
          <mxGeometry x="60" y="391" width="170" height="20" as="geometry" />
        </mxCell>
        <mxCell id="HwLwO4qjRw8fgx_lzEza-21" value="Section 4" style="text;html=1;points=[];align=left;verticalAlign=top;spacingTop=-4;fontSize=14;fontFamily=Verdana" vertex="1" parent="si_sN-9SS_ps1o2H-Q9L-1">
          <mxGeometry x="60" y="427" width="170" height="20" as="geometry" />
        </mxCell>
        <mxCell id="HwLwO4qjRw8fgx_lzEza-22" value="Section 7" style="text;html=1;points=[];align=left;verticalAlign=top;spacingTop=-4;fontSize=14;fontFamily=Verdana" vertex="1" parent="si_sN-9SS_ps1o2H-Q9L-1">
          <mxGeometry x="60" y="534" width="170" height="20" as="geometry" />
        </mxCell>
        <mxCell id="HwLwO4qjRw8fgx_lzEza-23" value="Section 8" style="text;html=1;points=[];align=left;verticalAlign=top;spacingTop=-4;fontSize=14;fontFamily=Verdana" vertex="1" parent="si_sN-9SS_ps1o2H-Q9L-1">
          <mxGeometry x="60" y="570" width="170" height="20" as="geometry" />
        </mxCell>
        <mxCell id="HwLwO4qjRw8fgx_lzEza-24" value="Section 9" style="text;html=1;points=[];align=left;verticalAlign=top;spacingTop=-4;fontSize=14;fontFamily=Verdana" vertex="1" parent="si_sN-9SS_ps1o2H-Q9L-1">
          <mxGeometry x="60" y="606" width="170" height="20" as="geometry" />
        </mxCell>
        <mxCell id="HwLwO4qjRw8fgx_lzEza-25" value="Section 10" style="text;html=1;points=[];align=left;verticalAlign=top;spacingTop=-4;fontSize=14;fontFamily=Verdana" vertex="1" parent="si_sN-9SS_ps1o2H-Q9L-1">
          <mxGeometry x="60" y="641" width="170" height="20" as="geometry" />
        </mxCell>
        <mxCell id="HwLwO4qjRw8fgx_lzEza-30" value="Section 5" style="text;html=1;points=[];align=left;verticalAlign=top;spacingTop=-4;fontSize=14;fontFamily=Verdana" vertex="1" parent="si_sN-9SS_ps1o2H-Q9L-1">
          <mxGeometry x="60" y="463" width="170" height="20" as="geometry" />
        </mxCell>
        <mxCell id="HwLwO4qjRw8fgx_lzEza-31" value="Section 6" style="text;html=1;points=[];align=left;verticalAlign=top;spacingTop=-4;fontSize=14;fontFamily=Verdana" vertex="1" parent="si_sN-9SS_ps1o2H-Q9L-1">
          <mxGeometry x="60" y="499" width="170" height="20" as="geometry" />
        </mxCell>
      </root>
    </mxGraphModel>
  </diagram>
</mxfile>
